<svg width="333" height="333" viewBox="0 0 333 333" fill="none" xmlns="http://www.w3.org/2000/svg">
<path d="M166.5 0H94.35C91.285 0 88.8 2.48503 88.8 5.55V44.4H5.55C2.48503 44.4 0 46.885 0 49.95V327.45C0 330.515 2.48503 333 5.55 333H166.5C169.565 333 172.05 330.515 172.05 327.45V5.55C172.05 2.48503 169.565 0 166.5 0ZM160.95 288.6H99.9V277.5H160.95V288.6ZM11.1 83.25H88.8V249.75H11.1V83.25ZM160.95 61.05H99.9V44.4H160.95V61.05ZM11.1 260.85H88.8V277.5H11.1V260.85ZM99.9 266.4V72.15H160.95V266.4H99.9ZM160.95 11.1V33.3H99.9V11.1H160.95ZM88.8 55.5V72.15H11.1V55.5H88.8ZM11.1 288.6H88.8V321.9H11.1V288.6ZM99.9 321.9V299.7H160.95V321.9H99.9Z" fill="#F65D9A"/>
<path d="M332.821 303.852L266.221 48.552C265.85 47.1212 264.923 45.899 263.644 45.1537C262.368 44.4112 260.847 44.208 259.419 44.5901L176.169 66.7901C173.221 67.576 171.459 70.5949 172.229 73.5487L238.829 328.849C239.2 330.28 240.13 331.502 241.409 332.244C242.685 332.984 244.205 333.185 245.631 332.8L328.881 310.6C331.824 309.814 333.583 306.801 332.821 303.852V303.852ZM193.207 109.99L265.733 90.654L268.343 100.643L195.822 120.008L193.207 109.99ZM271.145 111.412L303.334 234.886L230.834 254.23L198.646 130.748L271.145 111.412ZM306.161 245.631L311.843 267.411L239.317 286.747L233.656 264.975L306.161 245.631ZM256.888 56.7497L262.931 79.9198L190.405 99.25L184.367 76.0907L256.888 56.7497ZM248.162 320.651L242.119 297.481L314.645 278.14L320.683 301.299L248.162 320.651Z" fill="#F65D9A"/>
<path d="M72.1499 99.9004H27.7499C24.685 99.9004 22.2 102.385 22.2 105.45V149.85C22.2 152.915 24.685 155.4 27.7499 155.4H72.1499C75.2149 155.4 77.6999 152.915 77.6999 149.85V105.45C77.6999 102.385 75.2149 99.9004 72.1499 99.9004ZM66.5999 144.3H33.2999V111H66.5999V144.3Z" fill="#F65D9A"/>
</svg>
