<svg width="369" height="365" viewBox="0 0 369 365" fill="none" xmlns="http://www.w3.org/2000/svg">
<path d="M367.346 210.657L341.231 159.449C339.303 155.632 334.978 152.861 330.948 152.861H286.378C286.378 152.861 312.895 125.089 312.941 125.038C314.496 123.277 315.949 121.341 317.261 119.279C322.67 110.755 324.965 101.017 323.959 91.3029C333.942 90.0718 343.488 85.8821 349.878 79.7189L361.974 68.0946C362.988 67.1218 366.075 64.1625 365.077 60.1728C364.074 56.1594 360.004 55.014 358.5 54.5902L341.894 49.8192C338.121 48.737 333.976 48.2312 329.711 48.2981C331.102 44.2811 331.839 40.1289 331.777 36.0608L331.51 19.8756C331.486 18.5344 331.41 14.4527 328.001 12.3769C324.559 10.2796 320.875 12.097 319.484 12.7841L304.136 20.3764C300.011 22.4097 296.238 25.2589 292.99 28.6434C290.894 24.7581 288.24 21.3081 285.164 18.533L272.694 7.25044C271.571 6.2345 268.587 3.53636 264.726 4.55878C260.89 5.57472 259.618 9.44205 259.2 10.712L254.103 26.1863C251.326 34.5959 251.997 44.5992 255.737 53.5153C248.047 56.6365 241.146 61.6082 235.906 68.2406C234.027 61.6658 231.5 55.7846 228.335 50.82C222.662 41.9241 215.081 36.2774 206.406 34.488C186.248 30.3472 164.305 47.4678 148.854 76.4279C144.761 73.6722 142.149 70.6258 142.149 58.1798V37.0242C145.737 36.2644 148.435 33.1418 148.435 29.4126V7.77064C148.435 3.486 144.857 0 140.459 0H80.9828C76.596 0 73.0273 3.486 73.0273 7.77064V29.4119C73.0273 33.1396 75.716 36.2608 79.292 37.0228V58.1784C79.292 74.9183 73.7446 80.3664 67.3216 86.6743C60.3028 93.5672 52.3487 101.38 52.3487 122.018V152.861H37.4356C33.4056 152.861 29.0807 155.631 27.1618 159.43L1.03802 210.656C-0.362137 213.4 -0.344869 216.312 1.08407 218.646C2.4281 220.84 4.87297 222.15 7.62579 222.15H17.3182V273.671C17.3182 276.626 19.5947 279.203 22.5483 279.291C25.604 279.383 28.1108 276.933 28.1108 273.898V222.15H150.758C154.802 222.15 159.131 219.363 161.032 215.561L178.796 180.721V354.207H28.1108V298.918C28.1108 295.938 25.6947 293.522 22.7145 293.522C19.7343 293.522 17.3182 295.938 17.3182 298.918V355.898C17.3182 360.917 21.4014 365 26.4207 365H341.963C346.982 365 351.065 360.917 351.065 355.898V222.155L360.814 222.149C363.608 222.12 365.98 220.829 367.326 218.607C368.732 216.285 368.739 213.387 367.346 210.657ZM338.917 60.1915L351.008 63.6646L342.394 71.9432C337.471 76.6919 329.575 79.9549 321.519 80.7204C319.947 76.3883 317.723 72.3598 314.928 68.7213C318.263 66.1814 321.234 63.1034 323.72 59.69C329.07 58.7324 334.399 58.8971 338.917 60.1915ZM308.916 30.0522L320.788 24.1789L320.987 36.2306C321.122 45.1244 315.309 55.3291 307.301 60.9146C305.053 59.0921 302.62 57.438 299.999 55.9932C297.478 54.6017 294.873 53.4627 292.218 52.5389C293.783 43.5314 300.55 34.175 308.916 30.0522ZM264.353 29.5651L268.238 17.771L277.93 26.5403C281.333 29.6105 284.037 33.9117 285.675 38.8079C283.786 42.4061 282.42 46.2238 281.691 50.0811C276.51 49.4429 271.285 49.6076 266.215 50.5041C263.05 43.7012 262.289 35.8162 264.353 29.5651ZM235.243 138.349C239.732 119.359 240.943 100.67 239.061 84.4503C239.933 82.1587 240.944 79.9772 242.267 77.9C253.005 60.9744 276.565 55.3852 294.786 65.4432C303.727 70.3732 309.971 78.2389 312.366 87.591C314.632 96.4394 313.135 105.64 308.154 113.49C307.986 113.753 307.812 114.009 307.639 114.267L276.945 97.3309C274.335 95.8912 271.053 96.8395 269.613 99.4491C268.173 102.058 269.122 105.341 271.731 106.781L300.37 122.583L287.395 136.171L266.218 124.481C263.608 123.042 260.326 123.988 258.886 126.597C257.445 129.206 258.393 132.489 261.002 133.929L279.687 144.243L271.456 152.862H231.153C232.695 148.144 234.067 143.29 235.243 138.349ZM83.8205 10.7918H137.644V26.4115H83.8205V10.7918ZM63.142 122.018C63.142 105.907 68.5836 100.563 74.885 94.3744C82.0095 87.3773 90.0853 79.4469 90.0853 58.1784V37.2041H131.358V58.1791C131.358 76.1681 136.834 81.5076 144.091 86.203C139.909 95.6178 136.387 106.002 133.756 117.108C130.873 129.264 129.311 141.264 129.092 152.861H63.142V122.018ZM151.401 210.689C151.28 210.907 150.851 211.246 150.572 211.357H12.7954L36.7815 164.323C36.906 164.105 37.3399 163.764 37.6212 163.654H175.384L151.401 210.689ZM139.892 152.861C140.111 142.096 141.568 130.935 144.257 119.597C154.895 74.7003 182.363 40.5627 204.231 45.0575C210.061 46.2598 215.11 50.1501 219.235 56.6206C229.978 73.4664 232.138 104.572 224.743 135.857C223.353 141.69 221.667 147.385 219.746 152.861H139.892V152.861ZM289.363 211.397C286.382 211.399 283.968 213.816 283.97 216.797C283.971 219.776 286.387 222.19 289.366 222.189H289.369L340.273 222.16V354.205H189.588V180.72L207.333 215.522C209.232 219.319 213.537 222.107 217.621 222.149L264.343 222.19H264.347C267.325 222.19 269.74 219.777 269.743 216.799C269.745 213.819 267.332 211.4 264.352 211.398L217.836 211.358C217.551 211.252 217.106 210.907 216.967 210.658L193.001 163.654H330.763C331.043 163.764 331.478 164.106 331.608 164.333L355.59 211.36L289.363 211.397Z" fill="#F65D9A"/>
<path d="M206.554 126.765L164.623 118.125C161.706 117.526 158.851 119.402 158.249 122.321C157.648 125.24 159.526 128.094 162.445 128.695C162.445 128.695 205.109 137.447 205.47 137.447C207.977 137.447 210.224 135.69 210.75 133.139C211.351 130.22 209.472 127.366 206.554 126.765Z" fill="#F65D9A"/>
<path d="M178.703 97.3283C178.703 97.3283 204.516 102.599 204.876 102.599C207.384 102.599 209.631 100.842 210.156 98.2895C210.756 95.3705 208.877 92.517 205.958 91.9169L180.877 86.7573C177.959 86.1565 175.105 88.0366 174.505 90.9556C173.905 93.8747 175.784 96.7282 178.703 97.3283Z" fill="#F65D9A"/>
<path d="M58.8714 295.836H104.119C107.099 295.836 109.515 293.419 109.515 290.439C109.515 287.459 107.099 285.043 104.119 285.043H58.8714C55.8912 285.043 53.4751 287.459 53.4751 290.439C53.4751 293.419 55.8912 295.836 58.8714 295.836Z" fill="#F65D9A"/>
<path d="M58.8714 322.986H104.119C107.099 322.986 109.515 320.57 109.515 317.59C109.515 314.609 107.099 312.193 104.119 312.193H58.8714C55.8912 312.193 53.4751 314.609 53.4751 317.59C53.4751 320.57 55.8912 322.986 58.8714 322.986Z" fill="#F65D9A"/>
</svg>
