<svg width="308" height="376" viewBox="0 0 308 376" fill="none" xmlns="http://www.w3.org/2000/svg">
<path d="M287.407 0.269531H20.5808C15.1885 0.275908 10.0189 2.42082 6.20594 6.23377C2.39299 10.0467 0.248076 15.2164 0.241699 20.6087V35.0368C0.254616 39.222 1.56006 43.3009 3.9795 46.7159C6.39894 50.1309 9.81424 52.715 13.7583 54.115V315.295C13.7668 322.476 16.6232 329.361 21.7008 334.438C26.7785 339.516 33.6628 342.372 40.8437 342.381H42.7712V352.315C42.7776 358.525 45.247 364.478 49.6375 368.868C54.0281 373.259 59.9811 375.728 66.1903 375.734H66.7605C72.9697 375.728 78.9227 373.259 83.3133 368.868C87.7039 364.478 90.1733 358.525 90.1796 352.315V342.381H222.322V352.315C222.328 358.524 224.797 364.476 229.187 368.867C233.576 373.257 239.528 375.727 245.737 375.734H246.311C252.52 375.728 258.473 373.259 262.864 368.868C267.255 364.478 269.724 358.525 269.73 352.315V342.248C276.431 341.598 282.65 338.479 287.177 333.497C291.705 328.515 294.217 322.027 294.226 315.295V54.115C298.17 52.7157 301.587 50.1318 304.007 46.7168C306.427 43.3018 307.733 39.2224 307.746 35.0368V20.6087C307.74 15.2164 305.595 10.0467 301.782 6.23377C297.969 2.42082 292.799 0.275908 287.407 0.269531V0.269531ZM14.2964 20.6087C14.2985 18.9426 14.9613 17.3453 16.1394 16.1672C17.3175 14.9891 18.9148 14.3263 20.5808 14.3242H287.407C289.073 14.3263 290.67 14.9891 291.849 16.1672C293.027 17.3453 293.689 18.9426 293.692 20.6087V35.0368C293.689 36.7029 293.027 38.3001 291.849 39.4782C290.67 40.6563 289.073 41.3191 287.407 41.3213H20.5808C18.9148 41.3191 17.3175 40.6563 16.1394 39.4782C14.9613 38.3001 14.2985 36.7029 14.2964 35.0368V20.6087ZM117.522 246.708H190.478V247.913C190.478 251.428 189.082 254.798 186.597 257.283C184.111 259.769 180.741 261.165 177.226 261.165H130.766C127.251 261.165 123.88 259.769 121.395 257.283C118.91 254.798 117.514 251.428 117.514 247.913L117.522 246.708ZM197.505 232.654H27.813V151.056H103.467V152.261C103.474 159.501 106.353 166.443 111.472 171.562C116.592 176.682 123.533 179.561 130.774 179.567H177.234C184.475 179.561 191.416 176.682 196.536 171.562C201.655 166.443 204.534 159.501 204.541 152.261V151.056H280.171V232.654H197.505ZM117.522 151.056H190.478V152.261C190.478 155.775 189.082 159.146 186.597 161.631C184.111 164.116 180.741 165.513 177.226 165.513H130.766C127.251 165.513 123.88 164.116 121.395 161.631C118.91 159.146 117.514 155.775 117.514 152.261L117.522 151.056ZM280.155 137.002H27.813V55.376H103.467V56.5806C103.474 63.8208 106.353 70.7625 111.472 75.882C116.592 81.0016 123.533 83.8805 130.774 83.8869H177.234C184.475 83.8805 191.416 81.0016 196.536 75.882C201.655 70.7625 204.534 63.8208 204.541 56.5806V55.376H280.171L280.155 137.002ZM117.522 55.388H190.478V56.5927C190.478 60.1072 189.082 63.4778 186.597 65.963C184.111 68.4481 180.741 69.8443 177.226 69.8443H130.766C127.251 69.8443 123.88 68.4481 121.395 65.963C118.91 63.4778 117.514 60.1072 117.514 56.5927L117.522 55.388ZM76.125 352.311C76.1228 354.794 75.1356 357.175 73.3798 358.931C71.6241 360.686 69.2435 361.674 66.7605 361.676H66.1903C63.7074 361.674 61.3267 360.686 59.571 358.931C57.8153 357.175 56.828 354.794 56.8259 352.311V342.377H76.125V352.311ZM255.676 352.311C255.673 354.794 254.686 357.175 252.93 358.931C251.175 360.686 248.794 361.674 246.311 361.676H245.737C243.255 361.673 240.875 360.685 239.12 358.929C237.365 357.174 236.379 354.794 236.377 352.311V342.377H255.676V352.311ZM280.171 315.291C280.168 318.746 278.794 322.058 276.352 324.5C273.91 326.943 270.599 328.318 267.144 328.322H40.8437C37.3897 328.318 34.0784 326.944 31.6357 324.502C29.193 322.06 27.8183 318.749 27.813 315.295V246.708H103.467V247.913C103.474 255.153 106.353 262.095 111.472 267.215C116.592 272.334 123.533 275.213 130.774 275.219H177.234C184.475 275.213 191.416 272.334 196.536 267.215C201.655 262.095 204.534 255.153 204.541 247.913V246.708H280.171V315.291Z" fill="#F65D9A"/>
</svg>
