<svg width="252" height="318" viewBox="0 0 252 318" fill="none" xmlns="http://www.w3.org/2000/svg">
<path d="M239.869 103.105C250.397 97.0024 254.816 83.9369 250.147 72.7134L245.302 61.0633C243.415 56.5257 243.136 51.4294 244.518 46.7132L248.855 31.9056C251.016 24.5272 249.797 16.4867 245.248 10.2875C240.629 3.99156 233.487 0.365289 225.69 0.34793L125.992 0.125977L88.2571 0.186735C85.7121 0.191075 83.4956 2.15518 83.4225 4.69896C83.3462 7.3314 85.4572 9.48708 88.0705 9.48708H88.0779L125.989 9.4257L225.67 9.64827C230.436 9.65881 234.806 11.8535 237.662 15.6702C240.549 19.5295 241.309 24.5836 239.954 29.2087L236.798 39.9846C235.995 42.7249 234.736 45.3139 233.044 47.6141C229.959 51.8058 224.303 58.4265 215.512 64.9258C213.437 66.4603 212.859 69.5075 214.41 71.5708C215.322 72.7841 216.717 73.4258 218.13 73.4258C219.087 73.4258 220.053 73.1313 220.883 72.52C226.889 68.0983 231.583 63.6257 235.141 59.7099C235.526 61.3863 236.05 63.0349 236.715 64.6344L241.56 76.2845C244.443 83.2159 241.711 91.2874 235.205 95.0582C219.493 104.166 184.411 119.444 126 119.444C67.5888 119.444 32.5065 104.166 16.7937 95.0588C10.287 91.2874 7.55534 83.2165 10.4383 76.2851L15.2834 64.635C15.9493 63.0349 16.4732 61.3857 16.8582 59.7087C20.4162 63.6257 25.1083 68.0976 31.1159 72.5206C31.946 73.1319 32.9113 73.4264 33.8692 73.4264C35.2828 73.4264 36.6777 72.7841 37.5897 71.5702C39.1397 69.5075 38.5619 66.4609 36.4874 64.9271C27.6985 58.429 22.0412 51.8082 18.9562 47.6159C17.2636 45.3152 16.0044 42.7261 15.2016 39.9852L12.0452 29.2093C10.6906 24.5836 11.4507 19.5302 14.3373 15.6708C17.1923 11.8542 21.5626 9.65943 26.3296 9.64889L66.0661 9.56023C68.6105 9.55465 70.8251 7.58993 70.8976 5.04615C70.9726 2.41433 68.8616 0.259893 66.2502 0.259893C66.2465 0.259893 66.2428 0.259893 66.2397 0.259893L26.7301 0.34793C19.0411 0.365289 11.6757 3.81239 7.01905 9.93036C2.28922 16.1438 0.834744 24.0207 3.02638 31.5026L7.48218 46.7145C8.86412 51.4301 8.58513 56.5269 6.69791 61.0646L1.85275 72.7146C-2.81571 83.9382 1.6029 97.0037 12.1314 103.106C31.7619 114.484 66.4976 127.983 121.351 128.71V170.17C121.351 172.716 123.313 174.936 125.858 175.012C128.491 175.092 130.651 172.98 130.651 170.364V128.71C135.795 128.641 140.76 128.459 145.555 128.179C146.148 130.4 146.94 133.607 147.743 137.567C148.19 139.771 150.129 141.293 152.295 141.293C152.681 141.293 153.074 141.244 153.465 141.143C155.886 140.52 157.322 138.004 156.823 135.555C156.172 132.356 155.531 129.637 154.984 127.481C159.491 127.076 163.83 126.582 168.009 126.01C168.822 129.358 170.001 134.655 171.082 141.184C171.458 143.461 173.43 145.076 175.663 145.076C175.952 145.076 176.246 145.048 176.541 144.993C179.048 144.517 180.645 142.005 180.226 139.487C179.186 133.23 178.069 128.088 177.234 124.585C181.075 123.92 184.76 123.187 188.303 122.401C192.014 141.525 197.969 177.093 201.747 224.341H130.65V192.339C130.65 189.793 128.688 187.572 126.143 187.496C123.51 187.417 121.35 189.528 121.35 192.144V312.907C121.35 315.475 123.432 317.556 126 317.556H209.916C212.48 317.556 214.566 315.48 214.566 312.915C214.566 300.029 214.343 287.577 213.946 275.598H241.385C243.956 275.598 246.035 273.51 246.035 270.939C246.034 200.524 239.474 143.148 233.74 106.455C235.927 105.328 237.97 104.206 239.869 103.105ZM235.766 224.34H211.072C210.757 220.365 210.427 216.471 210.083 212.661H235.22C235.418 216.496 235.601 220.389 235.766 224.34V224.34ZM130.65 254.619H203.745C203.945 258.455 204.129 262.348 204.294 266.298H130.65V254.619ZM130.65 275.598H204.642C204.77 279.442 204.881 283.335 204.971 287.277H130.65V275.598ZM212.535 245.319C212.296 241.359 212.041 237.465 211.77 233.64H236.114C236.242 237.482 236.35 241.377 236.439 245.319H212.535ZM234.696 203.361H209.204C208.809 199.365 208.401 195.47 207.984 191.682H233.927C234.199 195.506 234.457 199.399 234.696 203.361ZM202.448 233.64C202.721 237.464 202.979 241.358 203.22 245.319H130.65V233.64H202.448ZM130.65 308.257V296.578H205.145C205.202 300.429 205.24 304.32 205.257 308.257H130.65ZM213.6 266.298C213.436 262.348 213.254 258.455 213.055 254.619H236.614C236.669 258.471 236.709 262.36 236.725 266.298H213.6ZM233.227 182.382H206.917C203.616 154.719 199.929 133.452 197.348 120.201C208.045 117.357 217.208 114.039 224.974 110.625C227.881 129.623 230.952 153.868 233.227 182.382V182.382Z" fill="#F65D9A"/>
<path d="M41.5277 30.6181H161.355C163.923 30.6181 166.004 28.5362 166.004 25.9682C166.004 23.4003 163.923 21.3184 161.355 21.3184H41.5277C37.2207 21.3184 33.3644 23.7208 31.4629 27.5876C29.5664 31.4439 30.0171 35.9518 32.639 39.3518C37.344 45.453 46.2092 54.1625 61.723 61.004C78.8121 68.5405 100.438 72.362 126 72.362C151.561 72.362 173.186 68.5405 190.276 61.004C205.79 54.1625 214.655 45.453 219.361 39.3518C221.983 35.9518 222.433 31.4439 220.537 27.5876C218.636 23.7208 214.779 21.3184 210.472 21.3184H183.076C180.508 21.3184 178.426 23.4003 178.426 25.9682C178.426 28.5362 180.508 30.6181 183.076 30.6181H210.472C211.509 30.6181 211.995 31.2901 212.191 31.6906C212.385 32.085 212.618 32.8668 211.997 33.6727C203.533 44.6489 181.105 63.0623 126 63.0623C70.8956 63.0623 48.4677 44.6489 40.0038 33.6727C39.3825 32.8668 39.6144 32.085 39.8085 31.6906C40.0056 31.2901 40.4911 30.6181 41.5277 30.6181V30.6181Z" fill="#F65D9A"/>
<path d="M51.5943 74.0599C49.2867 72.9353 46.503 73.8932 45.3765 76.2014C44.2512 78.5095 45.2091 81.2933 47.5179 82.4191C50.5453 83.8953 53.7072 85.2624 56.9149 86.4825C57.4587 86.689 58.0173 86.7875 58.5666 86.7875C60.4414 86.7875 62.2083 85.6455 62.9139 83.7893C63.8265 81.3887 62.6206 78.703 60.2201 77.7904C57.2727 76.6688 54.3705 75.4146 51.5943 74.0599V74.0599Z" fill="#F65D9A"/>
<path d="M178.447 176.978C181.015 176.978 183.097 174.896 183.097 172.328C183.097 167.555 182.886 162.556 182.47 157.468C182.26 154.908 180.015 152.999 177.456 153.213C174.897 153.422 172.992 155.667 173.201 158.226C173.597 163.064 173.797 167.808 173.797 172.329C173.797 174.896 175.879 176.978 178.447 176.978Z" fill="#F65D9A"/>
</svg>
