<svg width="323" height="344" viewBox="0 0 323 344" fill="none" xmlns="http://www.w3.org/2000/svg">
<path d="M73.8271 84.5654C70.1221 84.5654 67.1152 87.5723 67.1152 91.2773C67.1152 94.9822 70.1221 97.9892 73.8271 97.9892C77.532 97.9892 80.539 94.9822 80.539 91.2773C80.539 87.5723 77.532 84.5654 73.8271 84.5654Z" fill="#F65D9A"/>
<path d="M134.231 210.071H114.096V189.936C114.096 186.23 111.091 183.225 107.384 183.225C103.678 183.225 100.673 186.23 100.673 189.936V210.071H80.539C76.8327 210.071 73.8271 213.076 73.8271 216.782C73.8271 220.488 76.8327 223.494 80.539 223.494H100.673V243.628C100.673 247.334 103.679 250.34 107.384 250.34C111.09 250.34 114.096 247.334 114.096 243.628V223.494H134.231C137.937 223.494 140.942 220.488 140.942 216.782C140.942 213.076 137.938 210.071 134.231 210.071Z" fill="#F65D9A"/>
<path d="M315.375 216.111C300.539 190.414 267.734 181.62 242.032 196.46L214.77 212.199V153.916C214.77 146.711 212.387 139.56 208.058 133.782L174.501 89.0396V69.9873C182.312 67.2166 187.924 59.7571 187.924 51.0068V20.1343C187.923 9.03216 178.891 0 167.789 0H46.981C35.8789 0 26.8461 9.03216 26.8461 20.1343V51.0075C26.8461 59.7564 32.4579 67.2173 40.2692 69.988V89.0403L6.70918 133.785C2.38271 139.561 0 146.711 0 153.916V283.898C0 302.402 15.054 317.455 33.5573 317.455H141.418C156.467 342.68 188.916 351.122 214.352 336.436L295.724 289.455C321.199 274.743 330.286 241.949 315.375 216.111ZM40.2692 20.1343C40.2692 16.4333 43.2801 13.4224 46.9804 13.4224H167.788C171.489 13.4224 174.5 16.4333 174.5 20.1343V51.0075C174.5 54.7084 171.489 57.7187 167.788 57.7187H46.981C43.2801 57.7187 40.2698 54.7077 40.2698 51.0075V20.1343H40.2692ZM17.4508 141.834L52.3499 95.3038C53.2211 94.1426 53.6922 92.7291 53.6922 91.2767V71.1424H161.077V84.5655H100.673C96.967 84.5655 93.9614 87.571 93.9614 91.2773C93.9614 94.9836 96.967 97.9892 100.673 97.9892H164.433L197.316 141.832C199.465 144.702 200.8 148.135 201.204 151.681H13.566C13.9687 148.134 15.3037 144.701 17.4508 141.834ZM33.558 304.032C22.4559 304.032 13.4237 295 13.4237 283.898V277.119H135.362C133.233 285.821 133.247 295.116 135.684 304.033H33.558V304.032ZM140.626 263.763H13.4231V165.103H201.346V219.948L160.659 243.441C152.176 248.341 145.319 255.317 140.626 263.763ZM207.642 324.811C188.381 335.933 163.768 329.355 152.639 310.081C141.456 290.62 148.233 266.119 167.372 255.064L203.802 234.031L244.072 303.777L207.642 324.811ZM289.012 277.83L255.697 297.066L215.427 227.318L248.743 208.085C268.017 196.958 292.621 203.547 303.75 222.822C314.929 242.194 308.131 266.79 289.012 277.83Z" fill="#F65D9A"/>
</svg>
