<svg width="369" height="284" viewBox="0 0 369 284" fill="none" xmlns="http://www.w3.org/2000/svg">
<path d="M368.975 257.186C368.972 257.132 368.972 257.079 368.967 257.025C368.948 256.811 368.917 256.601 368.873 256.396C368.869 256.376 368.862 256.355 368.857 256.335C368.815 256.146 368.762 255.962 368.7 255.782C368.683 255.734 368.665 255.687 368.647 255.639C368.587 255.475 368.518 255.316 368.443 255.161C368.43 255.134 368.421 255.106 368.407 255.078L339.499 198.059V10.4637C339.499 4.69385 334.805 0 329.035 0H39.9557C34.1859 0 29.492 4.69385 29.492 10.4637V198.058L0.584479 255.078C0.570785 255.105 0.562137 255.133 0.549165 255.161C0.473493 255.316 0.405748 255.475 0.344489 255.638C0.326472 255.685 0.308455 255.733 0.291879 255.781C0.23062 255.962 0.177289 256.147 0.134769 256.336C0.130445 256.355 0.123958 256.375 0.119634 256.394C0.0756723 256.6 0.0446827 256.81 0.0252241 257.024C0.0201793 257.078 0.0201793 257.132 0.0172965 257.185C0.0100896 257.297 0 257.408 0 257.522V271.234C0 278.087 5.57453 283.662 12.4276 283.662H356.565C363.418 283.662 368.993 278.087 368.993 271.234V257.522C368.993 257.408 368.983 257.297 368.975 257.186ZM40.3031 10.8118H328.69V193.945H40.3031V10.8118ZM38.2174 204.755H330.775L354.786 252.116H236.031L230.07 230.504C228.857 226.104 224.822 223.031 220.258 223.031H148.733C144.169 223.031 140.134 226.104 138.921 230.503L132.96 252.116H14.2055L38.2174 204.755ZM224.817 252.117H144.175L149.215 233.842H219.778L224.817 252.117ZM358.182 271.233C358.182 272.125 357.457 272.851 356.565 272.851H12.4276C11.5361 272.851 10.8103 272.125 10.8103 271.233V262.927H358.182V271.233Z" fill="#F65D9A"/>
<path d="M311.753 111.386C308.767 111.386 306.348 113.805 306.348 116.791V171.603H62.6443V116.791C62.6443 113.805 60.225 111.386 57.2391 111.386C54.2533 111.386 51.834 113.805 51.834 116.791V173.937C51.834 178.611 55.6356 182.413 60.31 182.413H308.683C313.357 182.413 317.159 178.612 317.159 173.937V116.791C317.158 113.807 314.739 111.386 311.753 111.386Z" fill="#F65D9A"/>
<path d="M308.682 22.3428H60.31C55.6363 22.3428 51.834 26.1444 51.834 30.8188V87.9651C51.834 90.9509 54.2533 93.3702 57.2391 93.3702C60.225 93.3702 62.6443 90.9509 62.6443 87.9651V33.1531H306.348V87.9651C306.348 90.9509 308.767 93.3702 311.753 93.3702C314.739 93.3702 317.158 90.9509 317.158 87.9651V30.8188C317.158 26.1437 313.357 22.3428 308.682 22.3428Z" fill="#F65D9A"/>
</svg>
