<svg width="268" height="271" viewBox="0 0 268 271" fill="none" xmlns="http://www.w3.org/2000/svg">
<path d="M177.208 129.749C180.121 129.749 182.483 127.387 182.483 124.475C182.483 121.562 180.121 119.2 177.208 119.2C174.295 119.2 171.934 121.562 171.934 124.475C171.934 127.387 174.295 129.749 177.208 129.749Z" fill="#04B998"/>
<path d="M178.113 147.074C175.234 146.647 172.549 148.638 172.123 151.519C170.681 161.253 162.453 169.326 150.113 173.115C136.924 177.165 118.616 175.808 107.448 163.645C105.477 161.5 102.141 161.358 99.9955 163.328C97.8499 165.298 97.708 168.635 99.678 170.78C106.143 177.821 114.925 182.619 125.072 184.657C128.656 185.376 132.373 185.733 136.115 185.733C141.894 185.733 147.731 184.882 153.21 183.199C169.534 178.187 180.505 166.922 182.558 153.065C182.984 150.183 180.994 147.501 178.113 147.074Z" fill="#04B998"/>
<path d="M251.421 100.429C241.834 89.3159 228.603 82.11 212.677 79.216C227.925 68.9257 241.077 58.6851 250.455 49.7493C264.753 36.1251 269.547 26.5511 265.544 19.6211C261.089 11.9026 248.23 11.9559 225.072 19.7904C205.506 26.4097 181.131 37.9062 156.439 52.1628C152.174 54.6249 147.948 57.146 143.814 59.6867C140.748 51.0278 142.77 41.1368 149.535 32.5601C154.602 26.136 155.734 17.9766 152.488 11.265C149.086 4.23056 141.62 0.0189877 132.503 0H132.256C100.079 0 68.6062 12.6959 43.6359 35.749C18.6344 58.8306 3.32823 89.386 0.537046 121.786C-2.82113 160.805 9.65165 197.902 35.6568 226.242C61.2026 254.081 97.4189 270.047 135.019 270.047C155.262 270.047 174.266 266.343 191.501 259.038C207.26 252.358 221.255 242.82 233.097 230.687C244.077 219.437 252.734 206.487 258.827 192.195C264.626 178.596 267.794 164.184 267.99 150.519C268.275 130.646 262.546 113.326 251.421 100.429ZM144.431 71.7248C150.013 68.2042 155.827 64.6962 161.713 61.2985C184.543 48.1168 207.278 37.2596 225.729 30.7263C246.041 23.5347 254.357 24.0041 256.296 24.9324C256.128 26.1597 254.604 31.6203 241.275 43.8947C230.145 54.1444 213.892 66.1979 195.51 77.8347C189.699 81.5146 183.652 85.1718 177.536 88.7035C169.105 93.5696 160.681 98.1198 152.412 102.286C150.762 97.4711 148.648 92.7985 146.074 88.3406C143.58 84.0204 140.687 79.9644 137.453 76.2117C139.742 74.7117 142.071 73.2117 144.431 71.7248ZM142.856 106.965C127.963 114.028 114.297 119.412 103.384 122.536C102.816 119.807 101.817 117.17 100.399 114.713C99.0561 112.385 97.3709 110.303 95.4231 108.508C103.593 100.623 115.092 91.4878 128.633 82.1422C131.776 85.6555 134.563 89.4983 136.939 93.6139C139.396 97.8703 141.374 102.347 142.856 106.965ZM257.442 150.368C256.69 202.852 209.671 259.498 135.019 259.498C100.366 259.498 66.9828 244.777 43.4296 219.11C19.4456 192.974 7.94593 158.731 11.0472 122.691C16.3738 60.8555 70.7476 10.5487 132.256 10.5487H132.492C137.538 10.5592 141.365 12.4939 142.991 15.8573C144.487 18.9492 143.837 22.7509 141.252 26.0273C131.747 38.0792 129.363 52.9017 134.733 65.3993C131.906 67.2211 129.127 69.0507 126.442 70.8656C126.429 70.8741 126.416 70.8825 126.404 70.891C109.632 82.2081 95.4695 93.4652 86.0464 102.938C78.8996 100.496 71.0472 101.208 64.373 105.06C53.415 111.39 39.0266 140.887 36.2539 146.736C35.5113 148.301 35.5856 150.132 36.4517 151.632C37.3183 153.133 38.8663 154.112 40.5931 154.253C43.5082 154.489 51.7863 155.086 61.0001 155.086C72.1807 155.086 84.7378 154.206 90.7453 150.736C97.2528 146.98 101.763 140.703 103.326 133.488C116.26 130.093 133.16 123.451 151.463 114.534C161.717 109.542 172.264 103.926 182.811 97.8392C188.16 94.7495 193.45 91.5643 198.59 88.3517C198.621 88.3533 198.651 88.358 198.682 88.3591C242.643 89.6197 257.86 121.217 257.442 150.368ZM93.3572 128.889C93.0196 134.194 90.0723 138.945 85.471 141.601C80.483 144.482 63.3477 144.871 49.2784 144.227C55.7526 131.725 64.6552 117.08 69.6484 114.196C74.3627 111.474 80.0621 111.355 84.8976 113.878C87.5554 115.262 89.7558 117.373 91.2622 119.985C92.8292 122.701 93.5534 125.78 93.3572 128.889Z" fill="#04B998"/>
<path d="M92.8196 32.6162C81.1865 32.6162 71.7222 42.0805 71.7222 53.7136C71.7222 65.3467 81.1865 74.811 92.8196 74.811C104.453 74.811 113.917 65.3467 113.917 53.7136C113.917 42.0805 104.453 32.6162 92.8196 32.6162ZM92.8196 64.2623C87.003 64.2623 82.2709 59.5302 82.2709 53.7136C82.2709 47.8971 87.003 43.1649 92.8196 43.1649C98.6361 43.1649 103.368 47.8971 103.368 53.7136C103.368 59.5302 98.6361 64.2623 92.8196 64.2623Z" fill="#04B998"/>
<path d="M66.447 174.345C54.8139 174.345 45.3496 183.809 45.3496 195.442C45.3496 207.075 54.8139 216.54 66.447 216.54C78.0801 216.54 87.5444 207.075 87.5444 195.442C87.5444 183.809 78.0801 174.345 66.447 174.345ZM66.447 205.991C60.6305 205.991 55.8983 201.259 55.8983 195.442C55.8983 189.626 60.6305 184.893 66.447 184.893C72.2636 184.893 76.9957 189.626 76.9957 195.442C76.9957 201.259 72.2636 205.991 66.447 205.991Z" fill="#04B998"/>
<path d="M119.191 205.991C107.558 205.991 98.0933 215.456 98.0933 227.089C98.0933 238.722 107.558 248.186 119.191 248.186C130.824 248.186 140.288 238.722 140.288 227.089C140.288 215.456 130.824 205.991 119.191 205.991ZM119.191 237.637C113.374 237.637 108.642 232.905 108.642 227.089C108.642 221.272 113.374 216.54 119.191 216.54C125.007 216.54 129.739 221.272 129.739 227.089C129.739 232.905 125.007 237.637 119.191 237.637Z" fill="#04B998"/>
<path d="M182.483 195.442C170.85 195.442 161.385 204.907 161.385 216.54C161.385 228.173 170.85 237.637 182.483 237.637C194.116 237.637 203.58 228.173 203.58 216.54C203.58 204.907 194.116 195.442 182.483 195.442ZM182.483 227.088C176.666 227.088 171.934 222.356 171.934 216.54C171.934 210.723 176.666 205.991 182.483 205.991C188.299 205.991 193.031 210.723 193.031 216.54C193.031 222.356 188.299 227.088 182.483 227.088Z" fill="#04B998"/>
<path d="M224.678 142.698C213.045 142.698 203.581 152.163 203.581 163.796C203.581 175.429 213.045 184.893 224.678 184.893C236.312 184.893 245.776 175.429 245.776 163.796C245.776 152.163 236.312 142.698 224.678 142.698ZM224.678 174.344C218.862 174.344 214.13 169.612 214.13 163.796C214.13 157.979 218.862 153.247 224.678 153.247C230.495 153.247 235.227 157.979 235.227 163.796C235.227 169.612 230.495 174.344 224.678 174.344Z" fill="#04B998"/>
</svg>
