<svg width="331" height="308" viewBox="0 0 331 308" fill="none" xmlns="http://www.w3.org/2000/svg">
<path d="M278.522 52.0975C246.741 21.099 197.898 16.3407 161.768 35.0173C158.646 36.6307 157.521 40.2942 159.255 43.1986C160.989 46.1041 164.926 47.149 168.047 45.5362C201.094 28.4513 242.675 34.5662 269.139 60.3774C296.444 87.3339 299.518 127.516 278.394 157.306C249.298 198.43 186.454 204.627 148.775 169.56C123.385 145.943 116.029 107.856 134.37 76.8632C136.091 73.9516 134.949 70.2929 131.821 68.6915C128.693 67.0914 124.762 68.1519 123.039 71.0629C122.643 71.7336 121.938 72.9837 121.259 74.2656H121.26C102.455 109.935 111.01 151.447 139.631 178.069C183.041 218.471 255.552 211.473 289.192 163.928C313.317 129.904 310.357 83.5261 278.522 52.0975Z" fill="#04B998"/>
<path d="M295.079 33.4238C247.181 -11.1405 169.241 -11.1423 121.34 33.4244C78.2664 73.5113 73.6292 136.361 108.707 181.322L88.5578 200.067C81.4937 196.92 72.5606 197.936 66.4772 203.597L9.48189 256.638C-3.15492 268.389 -3.16526 287.419 9.47866 299.176C22.1103 310.938 42.5605 310.943 55.1947 299.177L112.198 246.141C118.279 240.482 119.374 232.17 115.992 225.596L136.138 206.845C184.468 239.492 252.006 235.166 295.079 195.09C342.974 150.519 342.974 77.9959 295.079 33.4238ZM103.054 237.633L46.0489 290.67C38.4728 297.725 26.209 297.732 18.6225 290.667C11.0393 283.616 11.0347 272.205 18.6238 265.148L75.6204 212.106C78.1397 209.761 82.2416 209.76 84.761 212.106L103.053 229.127C105.575 231.472 105.575 235.288 103.054 237.633ZM107.626 216.364L98.4794 207.853L116.892 190.724C118.336 192.215 119.82 193.677 121.34 195.09C122.86 196.505 124.43 197.886 126.034 199.23L107.626 216.364ZM285.935 186.582C243.088 226.446 173.683 226.785 130.483 186.582C87.3347 146.436 87.5913 81.8507 130.483 41.9329C173.338 2.0614 243.073 2.05478 285.934 41.9329C328.786 81.8128 328.786 146.703 285.935 186.582Z" fill="#04B998"/>
</svg>
