<svg width="321" height="322" viewBox="0 0 321 322" fill="none" xmlns="http://www.w3.org/2000/svg">
<path d="M321 196.979C321 188.415 314.031 181.446 305.468 181.446H284.758C276.195 181.446 269.226 188.415 269.226 196.979C269.226 203.72 273.57 209.415 279.581 211.558V212.511C279.581 215.369 277.256 217.688 274.403 217.688H264.048V185.889C272.954 183.574 279.581 175.539 279.581 165.914C279.581 155.549 271.903 147.022 261.952 145.515C268.936 126.664 256.619 94.5175 230.328 63.1527L238.964 54.5168C241.066 55.516 243.328 56.07 245.612 56.07C249.593 56.07 253.569 54.5582 256.598 51.5294C262.65 45.4718 262.65 35.6192 256.598 29.5616L234.63 7.59383C228.573 1.53625 218.72 1.54661 212.662 7.59383C207.899 12.3622 206.947 19.4553 209.68 25.2229L201.044 33.8589C164.259 3.03253 126.365 -8.60631 110.16 7.60419C108.136 9.62856 108.136 12.9007 110.16 14.9251L240.439 145.204H62.129C50.7076 145.204 41.4194 154.493 41.4194 165.914C41.4194 175.539 48.0464 183.574 56.9516 185.889V217.688H46.5968C43.744 217.688 41.4194 215.369 41.4194 212.511V211.558C47.4303 209.415 51.7742 203.72 51.7742 196.979C51.7742 188.415 44.8054 181.446 36.2419 181.446H15.5323C6.96881 181.446 0 188.415 0 196.979C0 203.72 4.34385 209.415 10.3548 211.558V217.688C10.3548 234.82 24.2873 248.753 41.4194 248.753H56.9516V284.995C56.9516 304.974 73.2087 321.237 93.1935 321.237H227.806C247.791 321.237 264.048 304.974 264.048 284.995V248.753H279.581C296.713 248.753 310.645 234.82 310.645 217.688V211.558C316.656 209.415 321 203.72 321 196.979ZM219.989 14.9251C222.003 12.9059 225.29 12.9007 227.315 14.9251L249.277 36.8929C251.296 38.912 251.296 42.1945 249.277 44.2137C247.253 46.2381 243.965 46.2329 241.951 44.2137L219.989 22.2459C217.969 20.2267 217.969 16.9443 219.989 14.9251ZM216.328 33.2324L230.975 47.8793L223.488 55.3607C221.185 52.8497 218.803 50.3541 216.328 47.8793C213.853 45.4045 211.353 43.0229 208.847 40.719L216.328 33.2324ZM209.007 55.195C237.592 83.7796 260.321 124.205 252.244 142.362L121.835 11.9584C140.003 3.8868 180.423 26.6105 209.007 55.195V55.195ZM51.7742 165.914C51.7742 160.203 56.4183 155.559 62.129 155.559H258.871C264.582 155.559 269.226 160.203 269.226 165.914C269.226 171.625 264.582 176.269 258.871 176.269H62.129C56.4183 176.269 51.7742 171.625 51.7742 165.914ZM15.5323 191.801H36.2419C39.0947 191.801 41.4194 194.121 41.4194 196.979C41.4194 199.837 39.0947 202.156 36.2419 202.156H15.5323C12.6795 202.156 10.3548 199.837 10.3548 196.979C10.3548 194.121 12.6795 191.801 15.5323 191.801ZM41.4194 238.398C29.998 238.398 20.7097 229.11 20.7097 217.688V212.511H31.0645C31.0645 221.074 38.0333 228.043 46.5968 228.043H56.9516V238.398H41.4194ZM227.806 310.882H93.1935C78.9194 310.882 67.3064 299.269 67.3064 284.995V186.624H253.694V284.995C253.694 299.269 242.081 310.882 227.806 310.882ZM279.581 238.398H264.048V228.043H274.403C282.967 228.043 289.935 221.074 289.935 212.511H300.29V217.688C300.29 229.11 291.002 238.398 279.581 238.398ZM305.468 202.156H284.758C281.905 202.156 279.581 199.837 279.581 196.979C279.581 194.121 281.905 191.801 284.758 191.801H305.468C308.32 191.801 310.645 194.121 310.645 196.979C310.645 199.837 308.32 202.156 305.468 202.156Z" fill="#04B998"/>
<path d="M238.162 284.995C238.162 290.705 233.518 295.349 227.807 295.349V305.704C239.228 305.704 248.517 296.416 248.517 284.995V212.511H238.162V284.995Z" fill="#04B998"/>
<path d="M84.0404 101.953C86.6084 104.521 88.0166 107.927 88.0166 111.552C88.0166 115.176 86.6084 118.583 84.0404 121.151L74.0014 131.19L81.3222 138.51L91.3613 128.471C95.8863 123.952 98.3715 117.941 98.3715 111.552C98.3715 105.163 95.8863 99.1517 91.3613 94.6319L86.8103 90.0809C84.2475 87.5181 82.8392 84.1113 82.8392 80.4871C82.8392 76.8629 84.2475 73.4562 86.8155 70.8882L96.8545 60.8492L89.5336 53.5283L79.4946 63.5673C74.9695 68.0872 72.4844 74.0982 72.4844 80.4871C72.4844 86.8761 74.9695 92.8871 79.4946 97.4069L84.0404 101.953Z" fill="#04B998"/>
<path d="M143.451 60.8492L136.131 53.5283L126.092 63.5673C121.566 68.0872 119.081 74.0982 119.081 80.4871C119.081 86.8761 121.566 92.8871 126.092 97.4069L130.642 101.958C133.205 104.521 134.614 107.927 134.614 111.552C134.614 115.176 133.205 118.583 130.637 121.151L120.598 131.19L127.919 138.51L137.958 128.471C142.483 123.952 144.968 117.941 144.968 111.552C144.968 105.163 142.483 99.1517 137.958 94.6319L133.407 90.0809C130.844 87.5181 129.436 84.1113 129.436 80.4871C129.436 76.8629 130.844 73.4562 133.412 70.8882L143.451 60.8492Z" fill="#04B998"/>
</svg>
