<svg width="334" height="321" viewBox="0 0 334 321" fill="none" xmlns="http://www.w3.org/2000/svg">
<path d="M315.979 200.387C324.935 184.985 330.899 167.641 333.073 149.15C333.081 149.091 333.086 149.032 333.094 148.974C333.686 143.882 334 138.704 334 133.455C334 98.7924 320.723 67.1768 298.997 43.4258C298.651 42.9406 298.243 42.498 297.779 42.1168C283.666 27.0941 266.128 15.3293 246.418 8.09918C246.063 7.93922 245.696 7.80592 245.32 7.70995C231.348 2.72461 216.313 0 200.65 0C183.18 0 166.486 3.38577 151.182 9.52547C150.766 9.65077 150.367 9.81606 149.981 10.0187C131.163 17.7819 114.498 29.7361 101.147 44.7108C100.71 45.0973 100.321 45.5319 99.9933 46.0118C79.6387 69.4509 67.2997 100.037 67.2997 133.455C67.2997 138.465 67.5874 143.41 68.1282 148.278C68.1335 148.339 68.1415 148.398 68.1495 148.457C69.1405 157.292 70.9972 165.865 73.6317 174.095L1.99789 245.785C-0.665965 248.451 -0.665965 252.773 1.99789 255.439C3.32982 256.772 5.07465 257.438 6.81948 257.438C8.56431 257.438 10.3091 256.772 11.6411 255.439L78.9781 188.051C80.8535 192.218 82.9366 196.276 85.2142 200.203C85.422 200.672 85.6857 201.112 85.992 201.52C102.897 229.931 130.036 251.557 162.285 261.272L114.245 309.347C111.584 312.013 111.584 316.335 114.245 319.001C115.577 320.334 117.324 321 119.069 321C120.814 321 122.559 320.334 123.891 319.001L177.89 264.956C185.29 266.236 192.893 266.91 200.65 266.91C249.225 266.91 291.812 240.776 315.127 201.824C315.468 201.381 315.755 200.901 315.979 200.387V200.387ZM256.975 200.656L232.712 163.29L245.613 123.554L276.277 116.662L284.255 114.871L319.117 150.699C316.999 165.34 312.226 179.134 305.3 191.573L256.975 200.656ZM168.59 163.29L144.339 200.637L95.8643 191.328C88.9196 178.784 84.162 164.868 82.1001 150.099L117.007 114.86L155.689 123.554L164.286 150.035L168.59 163.29ZM101.389 66.553L107.54 105.031L80.96 131.864C81.277 107.713 88.7598 85.26 101.389 66.553ZM181.036 157.454L168.99 120.352L200.525 97.4248L232.059 120.355L220.013 157.454H181.036ZM320.348 132.399L293.629 104.94L298.352 64.3002C312.018 83.5831 320.127 107.065 320.348 132.399ZM286.304 49.8481L280.267 101.778L265.595 105.073L241.841 110.411L207.595 85.5106V48.5631L244.606 22.0155C260.432 28.2911 274.607 37.8513 286.304 49.8481ZM228.338 16.8915L200.362 36.9582L169.174 17.8619C179.208 15.1213 189.76 13.6497 200.65 13.6497C210.178 13.6497 219.449 14.7747 228.338 16.8915ZM152.623 23.727L193.705 48.883V85.5106L169.549 103.074L159.461 110.411L120.825 101.73L112.886 52.0715C123.981 40.096 137.484 30.3893 152.623 23.727ZM106.411 207.252L143.206 214.322L161.947 246.83C139.807 239.24 120.574 225.327 106.411 207.252V207.252ZM180.407 251.538L155.551 208.419L179.781 171.104H221.519L245.749 208.419L220.898 251.536C214.313 252.663 207.549 253.258 200.65 253.258C193.75 253.261 186.99 252.666 180.407 251.538V251.538ZM239.356 246.83L258.085 214.335L294.74 207.444C280.592 225.425 261.418 239.267 239.356 246.83V246.83Z" fill="#04B998"/>
</svg>
