<svg width="294" height="313" viewBox="0 0 294 313" fill="none" xmlns="http://www.w3.org/2000/svg">
<path d="M290.807 69.0626L148.693 0.455745C147.433 -0.151915 145.965 -0.151915 144.706 0.455745L2.59142 69.0626C1.00686 69.8274 0 71.4321 0 73.1915V239.808C0 241.568 1.00686 243.172 2.59142 243.937L144.706 312.544C145.335 312.848 146.017 313 146.699 313C147.381 313 148.062 312.848 148.693 312.544L290.807 243.937C292.391 243.172 293.398 241.568 293.398 239.808V73.1921C293.398 71.4315 292.391 69.828 290.807 69.0626ZM146.699 9.6764L278.267 73.1915L240.128 91.6035C239.887 91.4195 239.632 91.2495 239.352 91.1144L108.678 28.0315L146.699 9.6764ZM98.3229 33.2156L229.7 96.6383L202.792 109.628L71.4697 46.2313L98.3229 33.2156ZM232.773 105.336V153.354L207.64 165.487V117.47L232.773 105.336ZM284.228 236.931L151.284 301.11V144.676L182.995 129.367C185.276 128.266 186.232 125.525 185.131 123.245C184.03 120.965 181.289 120.008 179.008 121.109L146.699 136.707L133.986 130.569C131.705 129.467 128.964 130.425 127.863 132.705C126.762 134.985 127.719 137.726 129.999 138.827L142.114 144.676V301.11L9.16991 236.93V80.4962L110.406 129.369C111.048 129.679 111.727 129.826 112.396 129.826C114.1 129.826 115.737 128.871 116.528 127.233C117.629 124.953 116.672 122.212 114.392 121.111L15.131 73.1915L60.6779 51.2033L198.406 117.693C198.427 117.721 198.449 117.746 198.47 117.774V172.793C198.47 174.37 199.281 175.837 200.618 176.676C201.36 177.142 202.206 177.378 203.055 177.378C203.735 177.378 204.417 177.227 205.048 176.922L239.352 160.361C240.936 159.597 241.943 157.992 241.943 156.232V100.91L284.228 80.4969V236.931V236.931Z" fill="#04B998"/>
<path d="M47.0073 219.149L26.1518 209.081C23.8704 207.978 21.1304 208.936 20.0294 211.216C18.9284 213.496 19.8845 216.238 22.1647 217.339L43.0202 227.406C43.6627 227.717 44.3419 227.864 45.0101 227.864C46.7144 227.864 48.3516 226.909 49.142 225.271C50.2436 222.99 49.2875 220.25 47.0073 219.149Z" fill="#04B998"/>
<path d="M66.2008 206.654L26.1803 187.334C23.8994 186.233 21.1588 187.189 20.0578 189.47C18.9574 191.75 19.9135 194.491 22.1938 195.592L62.2143 214.913C62.8568 215.223 63.536 215.37 64.2042 215.37C65.9086 215.37 67.5457 214.415 68.3362 212.778C69.4372 210.496 68.4811 207.755 66.2008 206.654Z" fill="#04B998"/>
</svg>
