<svg width="302" height="302" viewBox="0 0 302 302" fill="none" xmlns="http://www.w3.org/2000/svg">
<path d="M286.34 208.947C271.549 194.189 249.172 189.644 229.78 197.185L221.29 188.714C221.964 188.207 222.613 187.651 223.226 187.039L244.409 165.902C247.881 162.438 249.793 157.818 249.793 152.893C249.793 147.967 247.881 143.347 244.409 139.883H244.409C240.56 136.042 235.418 134.261 230.368 134.535C230.494 133.611 230.563 132.672 230.563 131.722C230.563 126.261 228.441 121.14 224.587 117.304C220.848 113.574 216.009 111.596 211.103 111.369C213.443 104.269 211.799 96.1034 206.194 90.4967C201.612 85.9247 195.377 83.99 189.391 84.6819C189.478 83.9087 189.528 83.1266 189.528 82.3364C189.528 76.8752 187.41 71.7546 183.565 67.9175C175.605 59.9747 162.652 59.9753 154.691 67.9175L141.152 81.4265L140.105 80.381C135.038 75.3247 126.784 75.3317 121.706 80.3981L117.213 84.881L104.119 71.8047C111.674 52.4479 107.116 30.121 92.3233 15.3615C80.0078 3.07307 62.3671 -2.32273 45.1437 0.929132C42.6786 1.39293 35.1783 2.80434 33.639 8.54312C32.1339 14.1558 37.4861 18.7566 40.0591 20.9677C40.3195 21.1917 61.1985 41.9852 61.1985 41.9852C66.6196 47.3945 66.9838 56.1011 62.0801 61.9377C56.2235 66.8367 47.4845 66.4749 42.0557 61.0579C42.0557 61.0579 21.2162 40.2249 20.9911 39.9644C18.7747 37.3979 14.1603 32.0599 8.54763 33.5668C2.81002 35.1096 1.39566 42.5892 0.931276 45.0449C-2.32824 62.2436 3.08052 79.85 15.4008 92.1426C30.1915 106.9 52.5685 111.445 71.9606 103.904L87.1203 119.03C85.2698 123.81 84.407 129.072 84.7235 134.355C85.4425 146.214 79.1562 157.846 63.7025 173.25L47.6053 189.311C42.157 186.517 35.2927 187.388 30.7337 191.937L8.18873 214.431C5.45665 217.157 3.95271 220.791 3.95271 224.665C3.95271 228.539 5.45724 232.173 8.18814 234.898L70.4455 297.016C73.2689 299.833 76.9781 301.242 80.6873 301.242C84.3964 301.242 88.1056 299.833 90.9296 297.016L113.475 274.521C116.207 271.795 117.711 268.161 117.711 264.287C117.711 261.945 117.157 259.692 116.119 257.673L143.502 230.351C151.618 222.253 152.937 222.473 161.534 223.908C162.981 224.149 164.621 224.423 166.466 224.686C173.97 225.764 182.684 221.951 187.628 219.31L197.621 229.283C194.983 236.052 193.759 243.414 194.068 250.759C194.168 253.135 196.125 254.994 198.48 254.994C198.543 254.994 198.606 254.992 198.669 254.99C201.108 254.887 203.002 252.827 202.9 250.388C202.605 243.386 203.977 236.376 206.868 230.116C207.645 228.433 207.289 226.444 205.977 225.135L135.251 154.55C138.128 149.13 139.756 143.366 139.935 137.706C145.025 142.082 151.721 145.647 158.267 147.407C163.628 148.848 168.644 149.083 173.148 148.15C173.147 148.2 173.144 148.25 173.144 148.3C173.148 153.753 175.271 158.869 179.116 162.694C182.732 166.312 187.486 168.399 192.591 168.633C192.065 170.358 191.793 172.172 191.793 174.029C191.793 178.955 193.705 183.575 197.177 187.038C200.768 190.621 205.484 192.413 210.201 192.412C210.92 192.412 211.637 192.366 212.352 192.282L225.64 205.54C226.947 206.845 228.927 207.199 230.605 206.429C247.282 198.783 267.172 202.308 280.095 215.203C290.342 225.426 294.838 240.077 292.123 254.398C291.669 256.798 291.154 258.054 290.822 258.668C290.187 258.251 289.144 257.319 287.441 255.345C287.058 254.902 265.929 233.772 265.929 233.772C257.159 225.021 242.97 224.541 233.627 232.68C233.476 232.811 233.335 232.951 233.203 233.102C225.039 242.432 225.52 256.601 234.299 265.36L259.236 290.178C258.615 290.51 257.354 291.022 254.96 291.472C240.601 294.18 225.909 289.695 215.667 279.475C212.418 276.219 209.719 272.516 207.645 268.469C206.531 266.296 203.868 265.439 201.695 266.552C199.523 267.666 198.665 270.329 199.778 272.502C202.272 277.366 205.512 281.813 209.416 285.725C219.372 295.658 232.803 301.088 246.683 301.088C249.976 301.088 253.294 300.782 256.596 300.159C259.062 299.695 266.562 298.284 268.101 292.545C269.606 286.933 264.254 282.332 261.681 280.12C261.421 279.896 240.542 259.103 240.542 259.103C235.12 253.694 234.756 244.987 239.66 239.15C245.517 234.251 254.256 234.614 259.684 240.03C259.684 240.03 280.524 260.863 280.749 261.124C282.966 263.691 287.583 269.031 293.192 267.521C298.929 265.979 300.343 258.499 300.808 256.043C304.069 238.846 298.66 221.24 286.34 208.947V208.947ZM199.946 96.7517C204.373 101.179 204.442 108.425 200.108 112.921L185.901 127.097C183.461 123.563 170.04 110.251 170.04 110.251L183.565 96.7558C188.083 92.2475 195.434 92.2487 199.946 96.7517ZM160.936 74.1767C165.454 69.669 172.806 69.6702 177.321 74.1767C179.494 76.3436 180.689 79.2419 180.689 82.3376C180.689 85.4332 179.494 88.3315 177.321 90.4984L163.782 104.007L147.41 87.6721L160.936 74.1767ZM76.1 95.5477C74.7941 94.2441 72.8151 93.89 71.1362 94.659C54.4573 102.305 34.5684 98.7801 21.6452 85.8852C11.3987 75.6623 6.90225 61.0107 9.61724 46.6897C10.0716 44.2906 10.5867 43.0341 10.9185 42.4201C11.5537 42.8367 12.5962 43.769 14.3 45.7427C14.6824 46.1858 35.8118 67.3158 35.8118 67.3158C44.5827 76.0678 58.7711 76.5481 68.1141 68.4084C68.2644 68.2776 68.4053 68.1362 68.5373 67.9865C76.7017 58.6564 76.2202 44.4868 67.4417 35.7278C67.4417 35.7278 42.9261 11.5451 42.5047 10.9104C43.1259 10.578 44.387 10.0665 46.7808 9.61568C61.1384 6.906 75.8313 11.3931 86.0807 21.6201C98.9991 34.5097 102.532 54.3443 94.8721 70.9767C94.0978 72.6586 94.4537 74.6446 95.7638 75.9529L110.957 91.1261L94.4873 107.559C93.4295 108.615 92.4571 109.76 91.556 110.968L76.1 95.5477ZM179.121 133.862C177.976 135.004 176.988 136.261 176.159 137.603C166.744 143.437 151.857 137.011 144.449 129.875L143.53 128.96C136.759 122.211 133.157 118.618 132.824 118.277C132.818 118.271 132.812 118.267 132.807 118.261C132.79 118.244 132.775 118.226 132.758 118.21C132.735 118.186 132.711 118.169 132.688 118.148C130.997 116.53 128.319 116.502 126.599 118.127C124.825 119.804 124.748 122.602 126.425 124.375C126.441 124.392 126.467 124.42 126.514 124.467C129.531 127.477 131.125 131.694 131.125 136.66C131.125 144.473 127.133 153.122 120.444 159.795C118.717 161.519 118.714 164.317 120.437 166.045C121.301 166.91 122.434 167.343 123.567 167.343C124.696 167.343 125.826 166.913 126.689 166.052C127.969 164.774 129.156 163.438 130.267 162.064L181.043 212.738C175.896 215.154 170.914 216.395 167.718 215.935C165.972 215.686 164.387 215.422 162.989 215.188C152.747 213.479 148.157 213.218 137.257 224.093L110.352 250.939L88.1209 228.757C86.393 227.033 83.5944 227.036 81.8706 228.764C80.1463 230.492 80.1498 233.291 81.8783 235.015L107.222 260.302C107.222 260.302 107.224 260.303 107.224 260.305L107.227 260.308L107.232 260.312C108.289 261.367 108.871 262.779 108.871 264.288C108.871 265.796 108.289 267.208 107.231 268.263L84.6852 290.759C82.48 292.959 78.8928 292.958 76.6887 290.759L14.432 228.641C13.3747 227.586 12.7925 226.174 12.7925 224.666C12.7925 223.158 13.3747 221.745 14.4326 220.69L36.9775 198.195C39.1827 195.995 42.7699 195.996 44.974 198.195L67.2673 220.438C68.9958 222.162 71.7939 222.16 73.5182 220.431C75.2425 218.703 75.239 215.905 73.5111 214.181L54.353 195.066L69.9446 179.508C87.3754 162.133 94.4343 148.47 93.5468 133.824C93.0995 126.35 95.8522 118.683 100.729 113.815L127.949 86.6567C129.556 85.0525 132.263 85.0461 133.86 86.6396L138.023 90.7925L166.829 119.535C167.606 120.31 168.381 121.078 169.146 121.834C172.807 125.456 178.084 130.677 179.519 133.461L179.121 133.862ZM193.558 159.818C190.451 159.818 187.542 158.62 185.36 156.437C183.186 154.273 181.986 151.381 181.984 148.295C181.982 145.2 183.183 142.297 185.364 140.12L201.958 123.563C204.217 121.309 207.184 120.182 210.15 120.182C213.118 120.182 216.085 121.309 218.343 123.563C218.345 123.564 218.346 123.566 218.348 123.567C220.524 125.733 221.724 128.63 221.724 131.724C221.724 134.815 220.526 137.71 218.347 139.881C218.346 139.883 218.344 139.884 218.343 139.886L201.746 156.445C199.572 158.62 196.664 159.818 193.558 159.818ZM203.421 180.782C201.623 178.989 200.634 176.591 200.634 174.03C200.634 171.47 201.624 169.072 203.422 167.277L224.588 146.142C226.46 144.274 228.918 143.341 231.377 143.341C233.836 143.341 236.294 144.274 238.166 146.142H238.167C239.964 147.935 240.954 150.333 240.954 152.894C240.954 155.454 239.963 157.852 238.166 159.646L216.984 180.782C213.243 184.512 207.158 184.512 203.421 180.782V180.782Z" fill="#04B998"/>
</svg>
