<svg width="312" height="312" viewBox="0 0 312 312" fill="none" xmlns="http://www.w3.org/2000/svg">
<path d="M299.539 94.2748C296.798 93.5107 294.025 93.4698 291.419 94.0299L295.729 78.5588C299.113 66.4101 287.936 54.5619 275.566 57.3839C276.854 46.9945 268.097 37.7002 257.669 38.3187C248.267 38.8769 243.594 45.9476 241.298 54.1889C232.148 45.5911 216.604 49.9836 213.244 62.0469L187.259 155.409C187.091 156.015 186.224 156.033 186.034 155.431L176.778 126.243C174.638 119.528 168.695 115.061 162.081 114.456L163.524 111.321C167.419 102.776 163.636 92.6575 155.092 88.7623C146.622 84.9025 136.382 88.7544 132.532 97.2017L119.88 125.079C119.619 125.653 118.762 125.536 118.666 124.912L103.947 29.1237C102.043 16.7508 87.1325 10.5387 77.024 17.9921C75.7303 9.58624 72.0289 2.00672 62.7723 0.285208C52.4676 -1.63192 42.5627 6.57345 42.6163 17.0835C30.6736 12.8239 18.1678 23.2669 20.0855 35.727L22.5267 51.5887C10.6316 47.5149 -1.71274 57.8928 0.19646 70.3004L14.5493 163.564C16.6736 177.369 21.1538 190.56 27.8698 202.79L25.4341 261.568C25.1617 268.147 31.1715 273.559 37.7114 272.55L140.884 256.672C147.549 255.647 151.687 248.428 149.153 242.144L127.749 189.065L147.449 146.251L170.622 218.03L143.068 268.193C139.809 274.127 143.055 281.789 149.554 283.6L250.112 311.614C256.473 313.386 263.095 308.752 263.607 302.168L268.166 243.516C276.286 232.17 282.301 219.604 286.049 206.149L290.679 189.53C292.254 183.876 283.451 181.416 281.873 187.077L277.243 203.696C273.674 216.509 267.88 228.447 260.021 239.179C259.519 239.865 259.218 240.678 259.152 241.525L256.34 277.701L162.616 251.592L179.583 220.704C180.189 219.601 180.313 218.297 179.926 217.099L153.037 133.813C149.975 124.209 164.975 119.321 168.065 129.014L177.318 158.196C180.192 167.255 193.515 167.016 196.063 157.862L222.047 64.5003C224.736 54.8519 240.024 58.7532 237.245 68.7337L214.905 148.925C213.331 154.578 222.133 157.039 223.711 151.378L246.05 71.1871V71.1865L251.065 53.1853C253.753 43.5363 269.043 47.4388 266.262 57.4187L238.907 155.611C237.271 161.486 246.16 163.636 247.713 158.064L271.724 71.8726C274.454 62.0756 289.65 66.3084 286.921 76.106L278.565 106.102C278.564 106.105 278.563 106.107 278.562 106.11L262.909 162.298C261.335 167.95 270.132 170.43 271.715 164.751L287.37 108.554C290.11 98.766 305.293 103.004 302.565 112.796L289.51 159.655C287.936 165.308 296.738 167.77 298.316 162.108L311.37 115.249C313.893 106.203 308.584 96.794 299.539 94.2748V94.2748ZM255.619 286.988L254.494 301.459C254.42 302.408 253.483 303.065 252.566 302.808L152.008 274.795C151.068 274.533 150.612 273.448 151.081 272.594L158.097 259.821L255.619 286.988ZM118.534 190.654L131.714 223.338L116.912 225.616C111.125 226.506 112.493 235.547 118.302 234.65L135.225 232.046L140.675 245.561C141.04 246.466 140.458 247.489 139.494 247.637L36.3208 263.516C35.3799 263.661 34.5274 262.898 34.567 261.947L35.1678 247.445L90.2708 238.965C96.0709 238.073 94.6882 229.033 88.8808 229.931L35.5536 238.138L37.0557 201.884C37.091 201.034 36.8887 200.192 36.4713 199.451C29.943 187.863 25.6066 175.321 23.5834 162.175L9.23059 68.9098C7.68275 58.8513 23.2708 56.4491 24.8223 66.507L33.6949 124.159C34.5462 129.698 43.6919 129.022 42.7291 122.769L33.857 65.1201C33.8564 65.1176 33.8564 65.1158 33.8558 65.1133L29.1197 34.3364C27.5731 24.284 43.1654 21.8848 44.712 31.9366L58.3214 120.369C59.1727 125.909 68.3183 125.23 67.3555 118.979L51.8515 18.2334C50.3031 8.17308 65.8954 5.77393 67.4439 15.8337L82.9478 116.58C83.8406 122.381 92.8765 120.998 91.9819 115.19L79.3208 32.9135C77.7723 22.8538 93.3659 20.4534 94.9131 30.5131L109.631 126.3C111.075 135.696 124.271 137.522 128.204 128.857L140.852 100.987C145.064 91.7428 159.443 98.2358 155.214 107.514C153.827 110.528 151.349 114.088 150.868 117.412C145.916 120.842 143.101 126.718 143.587 132.781L118.622 187.035C118.095 188.178 118.064 189.488 118.534 190.654V190.654Z" fill="#04B998"/>
</svg>
