<svg width="313" height="313" viewBox="0 0 313 313" fill="none" xmlns="http://www.w3.org/2000/svg">
<path d="M247.85 10.4235C241.128 3.70151 232.191 0 222.685 0C213.179 0 204.242 3.70212 197.521 10.4235L17.8838 190.06C13.8742 194.069 11.1325 199.121 9.95323 204.668L0.13368 250.889C-0.296685 252.914 0.326856 255.019 1.79096 256.482C2.9494 257.641 4.50947 258.273 6.11356 258.273C6.53598 258.273 6.96207 258.229 7.38388 258.139L53.6054 248.32C59.1519 247.142 64.2032 244.399 68.2134 240.39L247.85 60.7531C261.726 46.8775 261.726 24.2998 247.85 10.4235V10.4235ZM182.226 43.0085L215.265 76.047L208.666 82.6455L175.628 49.607L182.226 43.0085ZM151.738 73.4966L163.934 85.6929L50.138 199.489C45.9536 199.572 41.966 197.984 38.9613 194.978C37.4453 193.463 36.2789 191.679 35.5117 189.722L151.738 73.4966ZM16.9406 230.614L27.6594 241.333L14.049 244.225L16.9406 230.614ZM51.0648 236.36L41.9201 238.303L19.9696 216.352L21.9124 207.209C22.5903 204.017 24.1584 201.107 26.4496 198.786C27.5432 200.523 28.8368 202.145 30.3155 203.624C34.8258 208.134 40.5746 210.872 46.7196 211.554C47.4018 217.698 50.1386 223.447 54.6495 227.958C56.1283 229.436 57.7507 230.73 59.4881 231.823C57.1669 234.114 54.2571 235.682 51.0648 236.36ZM68.5508 222.762C66.5946 221.995 64.8108 220.828 63.2947 219.312C60.2889 216.307 58.6964 212.313 58.7838 208.135L172.58 94.3387L184.776 106.535L68.5508 222.762ZM193.422 97.8899L160.384 64.8513L166.982 58.2528L200.021 91.2913L193.422 97.8899ZM239.204 52.1079L223.911 67.4018L190.872 34.3632L206.166 19.0687C210.578 14.6563 216.445 12.2263 222.685 12.2263C228.924 12.2263 234.792 14.6563 239.204 19.0687C248.313 28.178 248.313 42.9987 239.204 52.1079V52.1079Z" fill="#04B998"/>
<path d="M306.881 202.753C303.504 202.753 300.767 205.49 300.767 208.866V297.33C300.767 299.225 299.225 300.768 297.331 300.768H60.1233C58.0503 300.768 57.2122 299.284 56.9481 298.646C56.684 298.008 56.2274 296.366 57.6933 294.9L79.3253 273.268L88.0494 281.993C89.2433 283.186 90.8076 283.783 92.372 283.783C93.9364 283.783 95.5013 283.186 96.6946 281.993C99.0818 279.605 99.0818 275.734 96.6946 273.347L87.9712 264.623L116.385 236.209L125.109 244.932C126.302 246.126 127.867 246.723 129.431 246.723C130.995 246.723 132.56 246.126 133.754 244.932C136.141 242.545 136.141 238.674 133.754 236.286L125.03 227.563L153.444 199.149L162.168 207.872C163.362 209.066 164.926 209.663 166.49 209.663C168.055 209.663 169.619 209.066 170.813 207.872C173.2 205.485 173.2 201.614 170.813 199.227L162.089 190.504L190.503 162.09L199.227 170.813C200.421 172.007 201.985 172.604 203.549 172.604C205.114 172.604 206.678 172.007 207.872 170.813C210.259 168.426 210.259 164.555 207.872 162.168L199.149 153.445L227.562 125.031L236.286 133.754C237.48 134.948 239.044 135.545 240.609 135.545C242.173 135.545 243.737 134.947 244.931 133.754C247.318 131.367 247.318 127.496 244.931 125.109L236.207 116.385L264.621 87.9715L273.344 96.695C274.538 97.8889 276.103 98.4855 277.667 98.4855C279.231 98.4855 280.796 97.8883 281.99 96.695C284.377 94.3078 284.377 90.437 281.99 88.0498L273.266 79.3257L294.898 57.6937C296.364 56.2278 298.006 56.6844 298.644 56.9485C299.282 57.2126 300.766 58.0513 300.766 60.1237V141.622C300.766 144.999 303.502 147.736 306.879 147.736C310.254 147.736 312.992 144.999 312.992 141.622V60.1231C312.992 53.7654 309.196 48.0851 303.323 45.652C297.452 43.2196 290.749 44.5517 286.253 49.0473L49.0481 286.255C44.5525 290.75 43.2192 297.45 45.6523 303.324C48.0853 309.198 53.765 312.994 60.1233 312.994H297.331C305.967 312.994 312.994 305.967 312.994 297.33V208.866C312.994 205.49 310.257 202.753 306.881 202.753V202.753Z" fill="#04B998"/>
<path d="M306.887 169.335H306.881C303.504 169.335 300.771 172.072 300.771 175.448C300.771 178.825 303.51 181.561 306.887 181.561C310.263 181.561 313 178.825 313 175.448C313 172.072 310.263 169.335 306.887 169.335Z" fill="#04B998"/>
<path d="M259.766 136.053L136.054 259.766C134.305 261.514 133.782 264.143 134.728 266.428C135.675 268.712 137.903 270.202 140.376 270.202L264.089 270.202C265.71 270.202 267.264 269.558 268.411 268.412C269.557 267.265 270.202 265.71 270.202 264.089V140.376C270.202 137.904 268.713 135.674 266.428 134.728C264.144 133.782 261.514 134.306 259.766 136.053V136.053ZM257.975 257.976L155.134 257.975L257.975 155.135V257.976Z" fill="#04B998"/>
</svg>
