<svg width="180" height="242" viewBox="0 0 180 242" fill="none" xmlns="http://www.w3.org/2000/svg">
<g clip-path="url(#clip0)">
<path d="M90.046 241.958C86.1661 241.958 82.5253 240.063 80.2942 236.886L79.5281 235.788C66.5094 217.19 34.9924 172.167 23.5857 155.728C8.17041 133.499 0.0122707 109.981 1.20503e-05 87.7334C-0.0122466 64.1424 9.32885 42.0541 26.2948 25.5294C43.2057 9.06592 65.78 -3.8147e-06 89.856 -3.8147e-06H90.2421C124.303 -3.8147e-06 154.956 18.1564 170.236 47.3906C187.012 79.4772 182.004 118.967 156.506 155.734C144.499 173.05 107.018 226.581 100.282 236.193C99.2829 237.622 96.2427 241.958 90.046 241.958Z" fill="#F65D9A"/>
<path d="M139.253 82.3785C139.253 82.3049 139.259 82.2252 139.259 82.1516C139.259 67.7859 128.876 54.6287 113.265 54.6287C100.859 54.6287 93.6691 63.5474 91.2112 71.9018C88.7595 63.5535 81.5637 54.6287 69.1579 54.6287C53.5465 54.6287 43.1634 67.7798 43.1634 82.1516C43.1634 82.2252 43.1695 82.3049 43.1695 82.3785C43.0837 85.5068 43.1634 117.311 91.1928 143.233V143.239C91.1928 143.239 91.1989 143.239 91.1989 143.233C91.1989 143.233 91.2051 143.233 91.2051 143.239C91.2051 143.239 91.2112 143.239 91.2112 143.233C91.2112 143.233 91.2173 143.233 91.2173 143.239V143.233C139.259 117.311 139.339 85.5068 139.253 82.3785Z" fill="white"/>
</g>
<defs>
<clipPath id="clip0">
<rect width="180" height="241.958" fill="white"/>
</clipPath>
</defs>
</svg>
