<svg xmlns="http://www.w3.org/2000/svg" viewBox="0 0 109 109"><defs><style>.cls-1{fill:#fff;}</style></defs><g id="Layer_2" data-name="Layer 2"><g id="Layer_1-2" data-name="Layer 1"><path class="cls-1" d="M.25,74.66a2.12,2.12,0,0,0,1.88,1.13H12.77v31.08A2.13,2.13,0,0,0,14.9,109H94.1a2.13,2.13,0,0,0,2.13-2.13V75.79h10.64a2.13,2.13,0,0,0,1.77-3.31L95.87,53.32a2.14,2.14,0,0,0-1.77-1H86a2.13,2.13,0,0,0,0,4.26H93l9.93,14.9H68.41l-9.93-14.9h8.37a2.13,2.13,0,1,0,0-4.26H14.9a2.14,2.14,0,0,0-1.77,1L.36,72.48A2.11,2.11,0,0,0,.25,74.66ZM17,75.79h24.7a2.14,2.14,0,0,0,1.77-1l8.87-13.31v43.21H17Zm48.47-1a2.14,2.14,0,0,0,1.77,1H92v28.95H56.63V61.53ZM16,56.63H50.52l-9.93,14.9H6.11Z"/><path class="cls-1" d="M41.73,5.33A11.31,11.31,0,0,0,32.15,0C25.32,0,20.44,5.5,20.44,12.13c0,7.36,6,12.19,15,19.51,1.58,1.29,3.22,2.61,5,4.06a2.15,2.15,0,0,0,2.73,0c1.74-1.45,3.37-2.77,4.95-4.06,9-7.32,15-12.15,15-19.51C63,5.49,58.12,0,51.31,0A11.31,11.31,0,0,0,41.73,5.33Zm17,6.8c0,5.33-5.33,9.66-13.4,16.21-1.18.95-2.38,1.92-3.63,3-1.26-1-2.46-2-3.63-3C30,21.79,24.7,17.46,24.7,12.13c0-4.49,3.2-7.87,7.45-7.87,5.55,0,7.45,6.19,7.53,6.44a2.13,2.13,0,0,0,4.09,0c0-.06,1.92-6.44,7.54-6.44,4.24,0,7.45,3.38,7.45,7.87Z"/><path class="cls-1" d="M80.05,42.58a2.13,2.13,0,0,0,1.4-.53c1.16-1,2.25-1.94,3.3-2.84,5.92-5,10.2-8.69,10.2-14.11C95,20,91.21,16,86.43,16a7.89,7.89,0,0,0-6.38,3.2A7.91,7.91,0,0,0,73.66,16c-4.77,0-8.52,4-8.52,9.13,0,5.42,4.28,9.07,10.2,14.11,1.06.9,2.15,1.83,3.3,2.84A2.17,2.17,0,0,0,80.05,42.58ZM69.4,25.1c0-2.37,1.49-4.88,4.26-4.88,3.14,0,4.28,3.85,4.34,4a2.13,2.13,0,0,0,4.1,0c0-.17,1.19-4,4.33-4,2.77,0,4.26,2.51,4.26,4.88,0,3.45-3.27,6.25-8.7,10.87l-1.94,1.66L78.11,36c-5.43-4.62-8.71-7.42-8.71-10.87Z"/><circle class="cls-1" cx="76.43" cy="54.5" r="2.13"/></g></g></svg>