<svg xmlns="http://www.w3.org/2000/svg" xmlns:xlink="http://www.w3.org/1999/xlink" viewBox="0 0 106.38 97.3"><defs><style>.cls-1{fill:none;}.cls-2{clip-path:url(#clip-path);}.cls-3{fill:#fff;}</style><clipPath id="clip-path" transform="translate(0 -1.97)"><rect class="cls-1" width="106.38" height="101.25"/></clipPath></defs><g id="Layer_2" data-name="Layer 2"><g id="Layer_1-2" data-name="Layer 1"><g class="cls-2"><path class="cls-3" d="M102.34,56.31A8.58,8.58,0,0,0,96,55.52a8.06,8.06,0,0,0-5,3.77L89.38,62l-1.46-5.19,4.35-7.17a8.67,8.67,0,0,0-3.42-12.14,9.67,9.67,0,0,0-5.27-1.16l4.06-6.69a8.44,8.44,0,0,0,.93-6.75,8.86,8.86,0,0,0-4.35-5.39,9.71,9.71,0,0,0-5.28-1.17l.65-1.07A8.67,8.67,0,0,0,76.17,3.16,9.6,9.6,0,0,0,63.42,6.42l-.65,1.07a9.09,9.09,0,0,0-3.71-3.77A9.68,9.68,0,0,0,52,2.84,9.18,9.18,0,0,0,46.31,7l-2.9,4.77a1.93,1.93,0,0,0,.76,2.7A2.14,2.14,0,0,0,47,13.72L49.9,9a5.11,5.11,0,0,1,3.15-2.3A5.39,5.39,0,0,1,57,7.15a5,5,0,0,1,2.41,3,4.68,4.68,0,0,1-.5,3.72L40.13,44.81a1.92,1.92,0,0,0,.76,2.7,2.13,2.13,0,0,0,2.83-.72L67,8.39a5.35,5.35,0,0,1,7.09-1.8A4.81,4.81,0,0,1,76,13.33L57.14,44.42a6.46,6.46,0,0,0-4.4,7.84l.32,1.15a7.09,7.09,0,0,0-2.74.16,6.48,6.48,0,0,0-4.83,8l5.58,19.82a23.71,23.71,0,0,0,5.47,9.74,36.68,36.68,0,0,1-34.75-.29C6.6,82.46.19,65.11,6.56,49.55l6.63-16.19a5.64,5.64,0,0,1,7-3,5.23,5.23,0,0,1,3.42,6.42l-4.3,14a2.14,2.14,0,0,0,1.29,2.6,2.35,2.35,0,0,0,2.86-.91L37.67,29.13a1.93,1.93,0,0,0-.76-2.7,2.13,2.13,0,0,0-2.84.72L27.69,37.66a9.14,9.14,0,0,0-6-11,10.06,10.06,0,0,0-7.3.26,9.35,9.35,0,0,0-5,5.05L2.69,48.12a35.85,35.85,0,0,0-.46,26.06,38,38,0,0,0,17.48,20,40.82,40.82,0,0,0,19.69,5q.69,0,1.38,0a41,41,0,0,0,18.9-5.3,26.37,26.37,0,0,0,22.46,4.5A24.9,24.9,0,0,0,99.51,83.11l6.39-17.33A7.74,7.74,0,0,0,102.34,56.31ZM86.77,41a4.82,4.82,0,0,1,1.9,6.74L86.4,51.45l-2-7.25A6.5,6.5,0,0,0,82,40.77,5.47,5.47,0,0,1,86.77,41ZM82.14,21a5,5,0,0,1,2.42,3A4.69,4.69,0,0,1,84,27.71L76.93,39.42a7.55,7.55,0,0,0-1,.17,7.06,7.06,0,0,0-2.47,1.18,6.52,6.52,0,0,0-3-3.49,7,7,0,0,0-3.68-.87l8.27-13.63A5.33,5.33,0,0,1,82.14,21ZM102,64.47,95.59,81.8A20.82,20.82,0,0,1,81.07,94.62a22,22,0,0,1-16.1-2,20.24,20.24,0,0,1-9.89-12.26L49.5,60.52a2.55,2.55,0,0,1,1.9-3.13,2.7,2.7,0,0,1,3.29,1.8l3.59,12.74a2,2,0,0,0,2,1.47,2,2,0,0,0,.54-.07,2,2,0,0,0,1.47-2.42L56.75,51.24a2.55,2.55,0,0,1,1.9-3.13,2.7,2.7,0,0,1,3.29,1.8l5.54,19.68A2.07,2.07,0,0,0,70,71a2,2,0,0,0,1.47-2.42l-7-25a2.45,2.45,0,0,1,.26-1.94,2.64,2.64,0,0,1,1.63-1.19,2.78,2.78,0,0,1,2,.25,2.53,2.53,0,0,1,1.25,1.55l7,25a2.07,2.07,0,0,0,2,1.47,2.5,2.5,0,0,0,.54-.07,2,2,0,0,0,1.47-2.42L75.15,46.54a2.46,2.46,0,0,1,.27-1.94,2.68,2.68,0,0,1,1.63-1.19,2.71,2.71,0,0,1,3.29,1.81L86.7,67.8a2,2,0,0,0,1.75,1.45,2.09,2.09,0,0,0,2.07-1l4.09-7a4,4,0,0,1,2.49-1.87,4.19,4.19,0,0,1,3.14.4A3.86,3.86,0,0,1,102,64.47Z" transform="translate(0 -1.97)"/><path class="cls-3" d="M34,19.13a1.82,1.82,0,0,0,1.23-.48,1.61,1.61,0,0,0,0-2.35,1.79,1.79,0,0,0-2.46,0,1.59,1.59,0,0,0,0,2.35A1.82,1.82,0,0,0,34,19.13Z" transform="translate(0 -1.97)"/></g></g></g></svg>