<svg xmlns="http://www.w3.org/2000/svg" viewBox="0 0 108 108"><defs><style>.cls-1{fill:#fff;}</style></defs><g id="Layer_2" data-name="Layer 2"><g id="Layer_1-2" data-name="Layer 1"><path class="cls-1" d="M26.7,23.2a2.11,2.11,0,1,0-2.11-2.11A2.11,2.11,0,0,0,26.7,23.2Z"/><path class="cls-1" d="M45.68,43c-6.13,0-10.55,5.13-10.55,11.36,0,6.84,5.27,11.33,13.25,18.12,1.39,1.19,2.82,2.41,4.35,3.75a2.12,2.12,0,0,0,2.78,0c1.52-1.34,3-2.56,4.35-3.75,8-6.79,13.24-11.28,13.24-18.12C73.1,48.16,68.68,43,62.56,43a10,10,0,0,0-8.44,4.7A10,10,0,0,0,45.68,43Zm10.47,10c0-.06,1.66-5.83,6.41-5.83,3.6,0,6.32,3.07,6.32,7.14,0,4.89-4.42,8.67-11.76,14.91-1,.83-2,1.68-3,2.58-1-.9-2-1.75-3-2.58-7.33-6.24-11.76-10-11.76-14.91,0-4.07,2.72-7.14,6.33-7.14,4.69,0,6.33,5.57,6.41,5.84a2.11,2.11,0,0,0,4.06,0Z"/><path class="cls-1" d="M94.45,50.17a8.35,8.35,0,0,0,5.11,1.72,8.44,8.44,0,0,0,5.12-15.15L94.08,28.6V2.11A2.1,2.1,0,0,0,92,0H79.31A2.11,2.11,0,0,0,77.2,2.11V15.63L59.11,1.72a8.43,8.43,0,0,0-10.22,0L32.82,14.07a2.11,2.11,0,0,0,2.58,3.35L51.45,5.08a4.23,4.23,0,0,1,5.1,0l45.57,35A4.22,4.22,0,0,1,97,46.82L55.29,14.72a2.12,2.12,0,0,0-2.5-.05c-.1.06-41.8,32.14-41.8,32.14a4.17,4.17,0,0,1-3,.84,3.7,3.7,0,0,1-3.68-3.19,4.27,4.27,0,0,1,1.56-4.37L20.35,29a2.11,2.11,0,1,0-2.57-3.35L3.33,36.74A8.41,8.41,0,0,0,.22,45.4,7.88,7.88,0,0,0,7.6,51.85a8.44,8.44,0,0,0,6-1.68h0l.37-.28V78.82A12.62,12.62,0,0,0,4.47,88.88,10.52,10.52,0,0,0,10.55,108h86.9a10.52,10.52,0,0,0,6.08-19.12,12.6,12.6,0,0,0-9.45-10.06V49.88Zm-13-45.95h8.44V25.35l-8.44-6.48ZM33.75,103.78H10.55A6.3,6.3,0,0,1,7.46,92a2.11,2.11,0,0,0,1.07-1.64,8.38,8.38,0,0,1,15.22-4.06A2.11,2.11,0,0,0,26,87.1a6.23,6.23,0,0,1,1.46-.19,6.33,6.33,0,0,1,6.33,6.25,2.12,2.12,0,0,0,1.38,2.44,4.2,4.2,0,0,1-1.38,8.18ZM70.08,92.25A8.44,8.44,0,0,0,67,95.34H41.05a8.44,8.44,0,0,0-3.13-3.09,11,11,0,0,0-.16-1.13H70.25A8.81,8.81,0,0,0,70.08,92.25Zm-29,11.53a8.37,8.37,0,0,0,1.13-4.22H65.81A8.38,8.38,0,0,0,67,103.78ZM99.47,90.33A2.13,2.13,0,0,0,100.54,92a6.3,6.3,0,0,1-3.09,11.81H74.25a4.2,4.2,0,0,1-1.38-8.18,2.13,2.13,0,0,0,1.38-2.44,6.33,6.33,0,0,1,6.33-6.25A6.23,6.23,0,0,1,82,87.1a2.11,2.11,0,0,0,2.21-.83,8.38,8.38,0,0,1,15.22,4.06ZM89.86,78.54a12.71,12.71,0,0,0-8.2,4.21,10,10,0,0,0-1.08-.06,10.58,10.58,0,0,0-8.43,4.22H35.86a10.59,10.59,0,0,0-8.44-4.22,10,10,0,0,0-1.08.06,12.66,12.66,0,0,0-8.2-4.21V46.64L54,19.06,89.86,46.63Z"/></g></g></svg>