<svg width="1920" height="426" viewBox="0 0 1920 426" fill="none" xmlns="http://www.w3.org/2000/svg">
<path d="M587 334.5C392 334.5 259.855 27 0.5 27L-0.5 221.5V426H1920V136.5C1920 136.5 1690 381 1410 245.5C937.31 16.752 799 334.5 587 334.5Z" fill="#06BB9A" fill-opacity="0.4"/>
<path d="M510.252 334.794C508.474 334.792 506.807 333.924 505.786 332.468L505.435 331.965C499.478 323.447 485.055 302.826 479.835 295.297C472.78 285.115 469.051 274.347 469.053 264.162C469.055 253.363 473.342 243.255 481.12 235.696C488.873 228.165 499.215 224.023 510.248 224.031L510.424 224.031C526.028 224.043 540.065 232.365 547.055 245.753C554.729 260.447 552.422 278.523 540.728 295.345C535.221 303.268 518.032 327.76 514.943 332.158C514.485 332.812 513.091 334.796 510.252 334.794Z" fill="#F65D9A"/>
<path d="M532.849 261.759C532.849 261.725 532.852 261.688 532.852 261.655C532.857 255.078 528.104 249.052 520.952 249.046C515.269 249.042 511.972 253.123 510.844 256.946C509.723 253.124 506.43 249.036 500.746 249.031C493.594 249.026 488.833 255.043 488.828 261.622C488.828 261.655 488.831 261.692 488.831 261.726C488.791 263.158 488.816 277.714 510.811 289.6L510.811 289.603C510.811 289.603 510.814 289.603 510.814 289.6C510.814 289.6 510.816 289.6 510.816 289.603C510.816 289.603 510.819 289.603 510.819 289.6C510.819 289.6 510.822 289.6 510.822 289.603L510.822 289.6C532.84 277.75 532.887 263.191 532.849 261.759Z" fill="white"/>
<path d="M876.897 259.593C875.361 259.629 873.901 258.913 872.988 257.676L872.674 257.248C867.347 250.008 854.448 232.479 849.778 226.078C843.468 217.423 840.019 208.19 839.809 199.385C839.587 190.048 843.083 181.22 849.65 174.523C856.196 167.851 865.052 164.054 874.59 163.832L874.743 163.829C888.234 163.514 900.542 170.417 906.864 181.846C913.805 194.391 912.186 210.067 902.425 224.854C897.829 231.818 883.478 253.35 880.898 257.217C880.516 257.792 879.352 259.536 876.897 259.593Z" fill="#F65D9A"/>
<path d="M894.915 195.98C894.914 195.95 894.916 195.919 894.915 195.89C894.783 190.204 890.549 185.093 884.365 185.237C879.452 185.351 876.686 188.947 875.79 192.277C874.742 188.995 871.809 185.529 866.896 185.644C860.712 185.788 856.721 191.089 856.854 196.777C856.854 196.806 856.858 196.838 856.858 196.867C856.853 198.106 857.178 210.69 876.441 220.508L876.441 220.511C876.441 220.511 876.443 220.511 876.443 220.508C876.443 220.508 876.446 220.508 876.446 220.511C876.446 220.511 876.448 220.511 876.448 220.508C876.448 220.508 876.45 220.508 876.45 220.511L876.45 220.508C895.24 209.805 894.978 197.217 894.915 195.98Z" fill="white"/>
<path d="M1462.34 310.242C1461.19 310.269 1460.1 309.733 1459.42 308.808L1459.19 308.488C1455.2 303.073 1445.55 289.963 1442.06 285.176C1437.34 278.703 1434.76 271.798 1434.61 265.212C1434.44 258.229 1437.05 251.627 1441.97 246.618C1446.86 241.628 1453.48 238.789 1460.62 238.622L1460.73 238.62C1470.82 238.384 1480.03 243.547 1484.76 252.095C1489.95 261.477 1488.74 273.201 1481.44 284.26C1478 289.469 1467.26 305.573 1465.34 308.465C1465.05 308.894 1464.18 310.199 1462.34 310.242Z" fill="#F65D9A"/>
<path d="M1475.82 262.665C1475.82 262.644 1475.82 262.62 1475.82 262.598C1475.72 258.346 1472.55 254.523 1467.93 254.631C1464.25 254.716 1462.19 257.406 1461.52 259.896C1460.73 257.442 1458.54 254.85 1454.86 254.935C1450.24 255.043 1447.25 259.008 1447.35 263.262C1447.35 263.283 1447.36 263.307 1447.36 263.329C1447.35 264.255 1447.6 273.667 1462 281.01L1462 281.012C1462 281.012 1462 281.012 1462 281.01C1462 281.01 1462.01 281.01 1462.01 281.012C1462.01 281.012 1462.01 281.012 1462.01 281.01C1462.01 281.01 1462.01 281.01 1462.01 281.012L1462.01 281.01C1476.06 273.006 1475.87 263.591 1475.82 262.665Z" fill="white"/>
<path d="M1149.24 378.017C1147.07 378.012 1145.04 376.949 1143.8 375.175L1143.38 374.562C1136.14 364.175 1118.63 339.029 1112.29 329.848C1103.72 317.433 1099.2 304.311 1099.23 291.908C1099.26 278.757 1104.5 266.458 1113.99 257.271C1123.45 248.118 1136.05 243.098 1149.49 243.134L1149.7 243.134C1168.71 243.185 1185.78 253.352 1194.26 269.672C1203.57 287.584 1200.72 309.591 1186.44 330.049C1179.72 339.684 1158.73 369.47 1154.95 374.818C1154.39 375.614 1152.69 378.027 1149.24 378.017Z" fill="#F65D9A"/>
<path d="M1176.92 289.13C1176.92 289.089 1176.93 289.045 1176.93 289.004C1176.95 280.995 1171.18 273.645 1162.47 273.622C1155.55 273.604 1151.52 278.565 1150.14 283.218C1148.78 278.561 1144.78 273.575 1137.86 273.556C1129.15 273.533 1123.34 280.849 1123.32 288.861C1123.32 288.902 1123.32 288.946 1123.32 288.987C1123.27 290.731 1123.27 308.457 1150.02 322.983L1150.02 322.986C1150.02 322.986 1150.02 322.986 1150.02 322.983C1150.02 322.983 1150.03 322.983 1150.03 322.986C1150.03 322.986 1150.03 322.986 1150.03 322.983C1150.03 322.983 1150.04 322.983 1150.04 322.986L1150.04 322.983C1176.88 308.604 1176.97 290.874 1176.92 289.13Z" fill="white"/>
<path d="M1709.55 313.925C1705.35 313.925 1701.4 311.873 1698.99 308.433L1698.16 307.245C1684.05 287.112 1649.91 238.374 1637.55 220.578C1620.85 196.515 1612.01 171.057 1612 146.973C1611.99 121.435 1622.11 97.5244 1640.49 79.636C1658.81 61.814 1683.25 52 1709.34 52H1709.76C1746.66 52 1779.87 71.6546 1796.42 103.301C1814.6 138.036 1809.17 180.784 1781.55 220.585C1768.54 239.33 1727.94 297.278 1720.64 307.683C1719.56 309.23 1716.26 313.925 1709.55 313.925Z" fill="#F65D9A"/>
<path d="M1762.86 141.176C1762.86 141.097 1762.86 141.01 1762.86 140.931C1762.86 125.38 1751.61 111.137 1734.7 111.137C1721.26 111.137 1713.47 120.791 1710.81 129.835C1708.15 120.798 1700.36 111.137 1686.92 111.137C1670.01 111.137 1658.76 125.373 1658.76 140.931C1658.76 141.01 1658.77 141.097 1658.77 141.176C1658.67 144.563 1658.76 178.985 1710.79 207.053V207.059C1710.79 207.059 1710.8 207.059 1710.8 207.053C1710.8 207.053 1710.8 207.053 1710.8 207.059C1710.8 207.059 1710.81 207.059 1710.81 207.053C1710.81 207.053 1710.82 207.053 1710.82 207.059V207.053C1762.86 178.992 1762.95 144.563 1762.86 141.176Z" fill="white"/>
<path d="M181.127 182.925C178.192 182.925 175.437 181.492 173.749 179.09L173.17 178.259C163.32 164.199 139.475 130.161 130.844 117.733C119.182 100.927 113.009 83.1475 113 66.3279C112.991 48.4927 120.058 31.7936 132.894 19.3006C145.689 6.85399 162.763 0 180.983 0H181.276C207.045 0 230.237 13.7265 241.798 35.8281C254.49 60.086 250.701 89.9412 231.41 117.737C222.325 130.829 193.968 171.299 188.872 178.565C188.116 179.646 185.816 182.925 181.127 182.925Z" fill="#F65D9A"/>
<path d="M218.356 62.2796C218.356 62.224 218.36 62.1637 218.36 62.108C218.36 51.2474 210.505 41.3003 198.693 41.3003C189.307 41.3003 183.868 48.043 182.008 54.359C180.153 48.0476 174.709 41.3003 165.323 41.3003C153.512 41.3003 145.656 51.2428 145.656 62.108C145.656 62.1637 145.661 62.224 145.661 62.2796C145.596 64.6447 145.656 88.6847 181.994 108.287V108.291C181.994 108.291 181.999 108.291 181.999 108.287C181.999 108.287 182.004 108.287 182.004 108.291C182.004 108.291 182.008 108.291 182.008 108.287C182.008 108.287 182.013 108.287 182.013 108.291V108.287C218.36 88.6893 218.421 64.6447 218.356 62.2796Z" fill="white"/>
</svg>
