<svg xmlns="http://www.w3.org/2000/svg" viewBox="0 0 558.47 214.14"><defs><style>.cls-1{fill:#04b998;}.cls-2{fill:#f65d9a;}</style></defs><g id="Layer_2" data-name="Layer 2"><g id="Capa_1" data-name="Capa 1"><path class="cls-1" d="M168.15,202.5,178.9,185c7.46,5.22,18.51,9.1,26.71,9.1,5.38,0,7.32-1.34,7.32-3.88s-4.48-4.18-11.64-5.67c-14-3-29.71-6.42-29.71-24.63,0-14.93,12.09-26.57,32.24-26.57,12,0,23.44,4.33,32.24,10.15l-9.7,17.62C220,157,211.14,153,203.82,153c-4,0-6.71,2.09-6.71,4.33,0,2.53,3.43,3,11.19,4.77,14,3.14,30.15,7.76,30.15,26,0,16-12.68,26.12-33.58,26.12C191.44,214.14,177.55,209.82,168.15,202.5Z"/><path class="cls-1" d="M328.16,135.18v77.17H299.35v-7.76c-4.78,6-12.54,9.55-21.79,9.55-16.57,0-28.36-12.38-28.36-29.85V135.18h27.46v42.39c0,7.47,4.78,12.69,11.65,12.69,6.42,0,11-4.92,11-11.79V135.18Z"/><path class="cls-1" d="M470.7,163.24V212.5H443.24v-44c0-6.57-4.48-11.19-10.9-11.19s-10.89,4.32-10.89,10.29V212.5H394v-44c0-6.57-4.47-11.19-10.89-11.19s-10.9,4.32-10.9,10.29v44.78H343.38V135.18h28.81v9.41c3.73-6.87,10.9-11.2,20-11.2a28.67,28.67,0,0,1,24.18,12.69c4.48-7.76,13.74-12.69,25.08-12.69C457.57,133.39,470.7,145.78,470.7,163.24Z"/><path class="cls-1" d="M558.47,166.83v45.52H530.86v-5.52A29.64,29.64,0,0,1,511,214.14c-16.56,0-29.7-10.15-29.7-24.62,0-15.08,14.63-25.68,33.29-25.68a44.29,44.29,0,0,1,16.27,3.44v-.45c0-7.61-6.87-12.09-15.82-12.09-7.32,0-12.24,1.94-18.66,5.22l-8.81-17.46c10.75-5.38,22.24-9.11,35.23-9.11C542.35,133.39,558.47,145.78,558.47,166.83Zm-27.61,22.69V182.2c-2.69-1.34-7.77-2.39-12.24-2.39-5.82,0-10,3.74-10,9,0,4.93,3.88,8.36,9.4,8.36C524.89,197.13,530.26,194,530.86,189.52Z"/><path class="cls-1" d="M230.43,98.22a31,31,0,0,1-19.85,7.91c-15.38,0-26.12-10.75-26.12-26.12V49.85h-9.71V27.17h9.71V6h27.46v21.2h15.23V49.85H211.92V74.33c0,4.63,2.69,7.92,6.57,7.92a11.25,11.25,0,0,0,7-2.24Z"/><path class="cls-1" d="M238.19,65.68c0-22,19.85-40.31,43.58-40.31s43.44,18.36,43.44,40.31-19.85,40.45-43.44,40.45S238.19,87.62,238.19,65.68Zm60.15,0a16.64,16.64,0,1,0-16.57,16.57A16.69,16.69,0,0,0,298.34,65.68Z"/><path class="cls-1" d="M422.08,0V104.34H393.27V95.23a32.25,32.25,0,0,1-24.63,10.9c-20.75,0-35.37-16.72-35.37-40.45s14.62-40.31,35.37-40.31a32.29,32.29,0,0,1,24.63,10.9V0ZM393.27,65.68c0-9.56-6.42-16.42-15.52-16.42-10,0-17,6.86-17,16.42s7,16.57,17,16.57C386.85,82.25,393.27,75.38,393.27,65.68Z"/><path class="cls-1" d="M433.72,65.68c0-22,19.85-40.31,43.59-40.31,23.58,0,43.43,18.36,43.43,40.31s-19.85,40.45-43.43,40.45C453.57,106.13,433.72,87.62,433.72,65.68Zm60.15,0a16.64,16.64,0,0,0-33.28,0,16.64,16.64,0,0,0,33.28,0Z"/><path class="cls-2" d="M147.16,46C134,20.73,107.45,5.05,78,5.05h-.34A78.26,78.26,0,0,0,22.73,27.1,74.33,74.33,0,0,0,0,80.83c0,19.22,7.06,39.53,20.39,58.74,9.86,14.19,37.1,53.08,48.36,69.15l.66.94a10.31,10.31,0,0,0,8.43,4.39,10.56,10.56,0,0,0,8.85-5c5.82-8.31,38.22-54.55,48.6-69.5C157.33,107.81,161.66,73.7,147.16,46Zm-68.3,82.79h0C37.32,106.38,37.25,78.9,37.32,76.2V76c0-12.41,9-23.77,22.47-23.77,10.72,0,16.94,7.7,19.06,14.92C81,59.94,87.19,52.24,97.91,52.24c13.49,0,22.47,11.36,22.47,23.77,0,.06,0,.13,0,.19C120.45,78.9,120.38,106.38,78.86,128.77Z"/></g></g></svg>